<?xml version="1.0" encoding="UTF-8"?>
<svg version="1.1" xmlns="http://www.w3.org/2000/svg" width="1024" height="1024">
<path d="M0 0 C337.92 0 675.84 0 1024 0 C1024 337.92 1024 675.84 1024 1024 C686.08 1024 348.16 1024 0 1024 C0 686.08 0 348.16 0 0 Z " fill="#007FEB" transform="translate(0,0)"/>
<path d="M0 0 C1.08465546 0.00040787 1.08465546 0.00040787 2.19122314 0.00082397 C14.95808138 0.02278672 27.57060111 0.60936679 40.25 2.1875 C41.03342773 2.28401855 41.81685547 2.38053711 42.62402344 2.47998047 C48.20237326 3.19942457 53.72485233 4.13815025 59.25 5.1875 C60.72581543 5.4652124 60.72581543 5.4652124 62.23144531 5.74853516 C105.12621158 14.03397712 145.53781677 31.62196056 180.25 58.1875 C181.72919922 59.31671875 181.72919922 59.31671875 183.23828125 60.46875 C188.26477685 64.40864702 193.03687786 68.60206805 197.75 72.91015625 C199.40119772 74.41429418 201.06775691 75.90175955 202.75 77.37109375 C213.57847134 86.86292566 222.59502225 97.73692973 231.25 109.1875 C231.87624268 110.01241943 231.87624268 110.01241943 232.51513672 110.85400391 C243.81904708 125.86161516 253.31081466 142.1736358 261.25 159.1875 C261.74628906 160.22777344 262.24257813 161.26804687 262.75390625 162.33984375 C277.07788624 193.9150476 283.70767806 227.36454573 283.5625 261.875 C283.56034485 262.80014404 283.5581897 263.72528809 283.55596924 264.6784668 C283.50474226 278.39545259 283.05147325 291.71878179 280.25 305.1875 C280.05132324 306.19022949 279.85264648 307.19295898 279.64794922 308.22607422 C267.783931 367.1729153 235.43246798 422.4564706 187.25 459.1875 C186.27417969 459.96867187 185.29835938 460.74984375 184.29296875 461.5546875 C142.58496442 494.78280356 92.61592973 512.22213878 40.25 519.1875 C38.44160645 519.45119385 38.44160645 519.45119385 36.59667969 519.72021484 C31.44383127 520.35552659 26.29961934 520.38666636 21.11328125 520.42578125 C20.04833939 520.43552979 18.98339752 520.44527832 17.88618469 520.45532227 C-11.11445868 520.66614691 -38.01790369 519.22007506 -66.2734375 512.23828125 C-67.04921143 512.06071289 -67.82498535 511.88314453 -68.62426758 511.70019531 C-70.46951196 511.25514958 -72.28783207 510.70120771 -74.09765625 510.12890625 C-80.21583407 510.22705884 -84.70030445 513.67176484 -89.8125 516.8125 C-90.97337076 517.50692862 -92.13533499 518.1995323 -93.29833984 518.89038086 C-95.66311636 520.29879952 -98.02141777 521.71716987 -100.37451172 523.14501953 C-104.3035337 525.52243873 -108.25682124 527.85630397 -112.21508789 530.18457031 C-114.88637381 531.75669379 -117.55289492 533.3366568 -120.21875 534.91796875 C-129.07814773 540.16425351 -137.97366355 545.35031035 -146.8840332 550.50952148 C-148.91655417 551.69953057 -150.9374637 552.90947286 -152.94995117 554.13305664 C-154.53126831 555.08619751 -154.53126831 555.08619751 -156.14453125 556.05859375 C-157.09690674 556.6405249 -158.04928223 557.22245605 -159.03051758 557.82202148 C-163.31194463 559.97176756 -166.04925128 560.00826565 -170.75 559.1875 C-172.8047913 557.42997422 -173.63519181 556.00812229 -174.011343 553.3194809 C-174.12120285 550.90880697 -174.12067897 548.51752231 -174.09057617 546.10449219 C-174.09101425 545.18707245 -174.09145233 544.26965271 -174.09190369 543.32443237 C-174.08981485 540.29419623 -174.06647908 537.26451441 -174.04296875 534.234375 C-174.03737314 532.13259178 -174.03310288 530.03080465 -174.03010559 527.92901611 C-174.01865411 522.39857165 -173.98918413 516.86836373 -173.95599365 511.3380127 C-173.92529943 505.69412435 -173.91160163 500.05019776 -173.89648438 494.40625 C-173.86431488 483.33322943 -173.8131147 472.26038439 -173.75 461.1875 C-174.36319092 460.89198242 -174.97638184 460.59646484 -175.6081543 460.29199219 C-206.89293334 444.15927357 -233.01491164 404.38871797 -248.75 374.1875 C-249.08451172 373.54586914 -249.41902344 372.90423828 -249.76367188 372.24316406 C-272.99801449 326.92940229 -280.46190747 275.28552786 -272.75 225.1875 C-272.61609863 224.29256836 -272.48219727 223.39763672 -272.34423828 222.47558594 C-266.51752142 184.74671142 -250.95857009 148.1630487 -228.75 117.1875 C-228.28625977 116.53587891 -227.82251953 115.88425781 -227.34472656 115.21289062 C-220.82685778 106.11312726 -213.84625991 97.72781049 -206.11669922 89.63964844 C-204.0618125 87.45628542 -202.09968897 85.19329584 -200.125 82.9375 C-195.64444091 77.96176326 -190.8458246 73.52583716 -185.75 69.1875 C-185.20021484 68.71473633 -184.65042969 68.24197266 -184.08398438 67.75488281 C-133.11264644 24.16464026 -67.02389096 -0.09501626 0 0 Z " fill="#FEFEFE" transform="translate(507.75,193.8125)"/>
<path d="M0 0 C158.73 0 317.46 0 481 0 C481 337.92 481 675.84 481 1024 C321.94 1024 162.88 1024 -1 1024 C-1 1023.67 -1 1023.34 -1 1023 C-0.41167892 1022.99191315 0.17664215 1022.98382629 0.78279114 1022.97549438 C90.36001525 1021.72584655 179.85310944 1016.99567529 269 1008 C270.5134903 1007.84757843 270.5134903 1007.84757843 272.05755615 1007.69207764 C283.05388617 1006.57865099 294.03177464 1005.36455342 305 1004 C306.00160156 1003.88092285 307.00320313 1003.7618457 308.03515625 1003.63916016 C325.85430881 1001.49231163 342.97913827 997.23683604 359 989 C360.48306641 988.29230469 360.48306641 988.29230469 361.99609375 987.5703125 C387.57829445 975.26158134 409.5988036 957.02986596 426.78198242 934.57373047 C427.86414639 933.17552864 428.9787328 931.80255596 430.09765625 930.43359375 C440.95534822 916.54377425 449.03014389 899.49851144 455 883 C455.2233905 882.38591782 455.44678101 881.77183563 455.67694092 881.1391449 C463.24105904 859.48483545 465.26352408 836.41558167 466.95434189 813.70384979 C467.18841327 810.59536798 467.43586133 807.48799306 467.68242931 804.38048172 C470.19496926 772.63022657 472.11324514 740.84430053 473.78643799 709.03997803 C473.99517396 705.07801641 474.20994568 701.11639315 474.42529297 697.15478516 C475.40116407 679.10794373 476.2541596 661.05779712 477 643 C477.05327454 641.72819885 477.10654907 640.45639771 477.16143799 639.14605713 C481.10233449 543.92306994 480.26572833 448.33512976 464.453125 190.9375 C464.33209915 189.85955673 464.2110733 188.78161346 464.08638 187.67100525 C463.30577674 180.959915 462.24521949 174.44663755 460.67578125 167.87109375 C460.03028061 165.12864882 459.56212999 162.4071077 459.125 159.625 C454.19375464 132.30430998 441.01984284 107.55255793 424 86 C423.2265625 85.00097656 422.453125 84.00195312 421.65625 82.97265625 C399.29225187 54.73405716 367.24856157 34.8128571 332.52230835 25.67819214 C330.87542288 25.23538158 329.23342272 24.77386129 327.59773254 24.29133606 C320.39268522 22.19990454 313.23197191 20.98410785 305.80078125 20.0078125 C304.54767654 19.83943878 303.29457184 19.67106506 302.00349426 19.49758911 C288.10503809 17.67801362 274.1602263 16.33822093 260.20324707 15.06054688 C257.50461909 14.81214171 254.80654336 14.55801637 252.10846615 14.30370903 C220.36844423 11.29006169 220.36844423 11.29006169 188.5625 9.125 C185.65872223 8.96324106 182.75512471 8.79839212 179.8515625 8.6328125 C179.0453093 8.58699036 178.23905609 8.54116821 177.40837097 8.49395752 C169.63213811 8.04675062 161.85914579 7.55135345 154.0859375 7.0546875 C102.72847781 3.78055941 51.4641267 1.71726695 0 1 C0 0.67 0 0.34 0 0 Z " fill="#000000" transform="translate(543,0)"/>
<path d="M0 0 C158.73 0 317.46 0 481 0 C481 0.33 481 0.66 481 1 C480.45164993 1.00586624 479.90329987 1.01173248 479.33833313 1.01777649 C425.14737875 1.61817551 371.03051029 3.77868924 316.953125 7.3515625 C316.16891174 7.40250061 315.38469849 7.45343872 314.57672119 7.50592041 C310.05431459 7.81384413 305.56320375 8.25712358 301.06030273 8.77557373 C298.37418208 9.06816958 295.68977268 9.24415833 292.9921875 9.39453125 C291.86546631 9.46075684 290.73874512 9.52698242 289.57788086 9.59521484 C288.35593018 9.66691895 287.13397949 9.73862305 285.875 9.8125 C251.51613671 11.91833655 217.19676081 15.06918872 183 19 C181.92169922 19.12197754 180.84339844 19.24395508 179.73242188 19.36962891 C148.01747896 23.05406494 116.21068044 32.7166442 91 53 C87.24318182 56 87.24318182 56 85 56 C84.67 56.99 84.34 57.98 84 59 C82.1015625 60.65625 82.1015625 60.65625 79.625 62.5 C70.56048412 69.5832717 62.98357141 77.42982628 56.55859375 86.98046875 C56.04425781 87.64691406 55.52992187 88.31335938 55 89 C54.34 89 53.68 89 53 89 C52.505 90.98 52.505 90.98 52 93 C51.34 93 50.68 93 50 93 C49.7628125 93.68191406 49.525625 94.36382812 49.28125 95.06640625 C48.03065018 97.92982229 46.50214823 100.41207123 44.77612305 103.00976562 C34.8793615 117.95999121 27.46581344 134.63736235 23 152 C22.69352539 153.13356934 22.69352539 153.13356934 22.38085938 154.29003906 C18.17147306 170.1547201 16.50573422 186.27298703 15.02661133 202.57128906 C14.94357915 203.48496498 14.86054697 204.3986409 14.77499866 205.34000397 C11.3057854 243.7486918 8.80896948 282.17263751 6.875 320.6875 C6.74486596 323.26063096 6.61471849 325.83376124 6.48455811 328.40689087 C1.66938735 423.94111488 -0.04552319 519.6606984 5.96630859 684.6784668 C6.60359085 697.25004998 7.1655235 709.80504928 7.39904785 722.39068604 C8.65606605 845.0216283 8.65606605 845.0216283 66 949 C66.84175781 949.88816406 67.68351562 950.77632812 68.55078125 951.69140625 C87.49157777 971.38233333 112.17239723 986.1925609 138 995 C138.69480469 995.23960449 139.38960937 995.47920898 140.10546875 995.72607422 C149.62300095 998.95523693 159.13868977 1001.40773203 169.0703125 1002.96484375 C170.13647797 1003.13298584 171.20264343 1003.30112793 172.30111694 1003.47436523 C186.25326063 1005.59166936 200.29230977 1006.93736295 214.335495 1008.2805748 C216.66675915 1008.50400218 218.99776834 1008.72994632 221.32873535 1008.95645142 C250.52090661 1011.78797214 279.7297129 1014.13030992 309 1016 C310.99354313 1016.12863658 312.98708623 1016.25727359 314.98062801 1016.38593102 C370.96959782 1019.99285759 426.89492355 1022.2287995 483 1023 C483 1023.33 483 1023.66 483 1024 C323.61 1024 164.22 1024 0 1024 C0 686.08 0 348.16 0 0 Z " fill="#000000" transform="translate(0,0)"/>
<path d="M0 0 C5.76435741 3.54729687 10.15875641 9.24609887 14.59375 14.2734375 C17.13330212 17.15104689 19.71530353 19.98709025 22.3125 22.8125 C22.77188965 23.31297852 23.2312793 23.81345703 23.70458984 24.32910156 C27.10999784 28.03702938 30.52274438 31.73818142 33.9375 35.4375 C34.68 36.241875 34.68 36.241875 35.4375 37.0625 C38.01544149 39.85415685 40.59593295 42.64340963 43.1796875 45.4296875 C44.22402522 46.55722972 45.26829705 47.68483297 46.3125 48.8125 C46.81523438 49.35430908 47.31796875 49.89611816 47.8359375 50.4543457 C50.60954432 53.45432236 53.30062902 56.50299042 55.9375 59.625 C59.35520405 63.52859451 61.88157566 65.83369857 67.234375 66.25390625 C71.52073076 65.96488849 73.95163134 64.92531293 77.75 62.9375 C78.41845947 62.59025879 79.08691895 62.24301758 79.77563477 61.88525391 C91.30846182 55.82552507 102.64041182 49.37700229 114 43 C117.11221406 41.2548199 120.22463651 39.51001222 123.3371582 37.76538086 C125.35808538 36.63253773 127.37875715 35.49923884 129.39916992 34.36547852 C139.07872948 28.94016409 148.79583322 23.58349608 158.52099609 18.24047852 C159.41378769 17.74931549 159.41378769 17.74931549 160.32461548 17.24822998 C161.93834499 16.36048573 163.55264806 15.4737843 165.16699219 14.5871582 C167.0414838 13.53699705 168.88663247 12.43248778 170.69628906 11.27416992 C173 10 173 10 175.8125 10.3125 C176.534375 10.539375 177.25625 10.76625 178 11 C178.56549648 15.23169277 178.24226135 16.67937168 175.62109375 20.1484375 C174.57427718 21.23796085 173.51221906 22.31299011 172.4375 23.375 C171.32481409 24.52405563 170.21283104 25.67379231 169.1015625 26.82421875 C168.29380371 27.64672119 168.29380371 27.64672119 167.46972656 28.48583984 C165.6807866 30.32886404 163.98646452 32.23983038 162.3125 34.1875 C159.79297735 37.10355769 157.21978018 39.96315447 154.625 42.8125 C151.42347567 46.35160002 148.36853937 49.97103106 145.375 53.6875 C142.87026769 56.78591453 140.3660889 59.73296947 137.5 62.5 C134.73510921 65.17041844 132.33631435 67.99595992 129.9375 71 C125.54633667 76.46070912 120.82881586 81.55325977 116.02441406 86.65112305 C112.4832708 90.40864809 109.00647527 94.20028943 105.63671875 98.11328125 C103.62126228 100.43658787 101.56151538 102.71748465 99.5 105 C94.73377533 110.28690468 90.01987919 115.60924769 85.42578125 121.046875 C79.7668133 127.73738037 73.98022226 134.28136923 68 140.6875 C67.04770508 141.71230469 67.04770508 141.71230469 66.07617188 142.7578125 C65.47353516 143.39847656 64.87089844 144.03914062 64.25 144.69921875 C63.71890625 145.26471436 63.1878125 145.83020996 62.640625 146.4128418 C59.49455021 149.45638826 57.84785178 150.92690933 53.375 151.3125 C46.99305781 150.24290075 43.07029443 144.60498007 39 140 C38.36964844 139.28714844 37.73929688 138.57429687 37.08984375 137.83984375 C35.95714497 136.54201348 34.83069498 135.23869977 33.7109375 133.9296875 C31.25548723 131.16029838 28.60903661 128.59964876 25.97265625 126.00390625 C23.42662171 123.41753849 21.07978443 120.6846472 18.71484375 117.93359375 C17.03995701 116.04505403 15.30052413 114.26844352 13.5 112.5 C11.06610268 110.10946833 8.78644441 107.64953738 6.5625 105.0625 C3.52855083 101.53986103 0.3030999 98.28032729 -3.01171875 95.0234375 C-5.6353038 92.35346293 -8.05250434 89.53121811 -10.45703125 86.6640625 C-13.26735813 83.63317832 -15.6028737 82.59267908 -19.625 82.3125 C-27.62804415 82.50056109 -33.79292206 86.63341312 -40.52929688 90.5625 C-43.11523173 92.06704392 -45.71862854 93.53673096 -48.328125 95 C-52.19642805 97.17132378 -56.0579289 99.35401068 -59.9140625 101.546875 C-69.1698218 106.80603265 -78.46792593 111.98964018 -87.75927734 117.18554688 C-91.14996097 119.08396188 -94.53812299 120.98681705 -97.92578125 122.890625 C-99.62371826 123.84400757 -99.62371826 123.84400757 -101.35595703 124.81665039 C-103.5229018 126.03351231 -105.68927442 127.25139383 -107.85498047 128.47045898 C-122.03207882 136.42628008 -122.03207882 136.42628008 -128 136 C-128.734375 133.78515625 -128.734375 133.78515625 -129 131 C-127.515625 128.74609375 -127.515625 128.74609375 -125.25 126.4375 C-124.41339844 125.56351562 -123.57679688 124.68953125 -122.71484375 123.7890625 C-121.81894531 122.86867188 -120.92304688 121.94828125 -120 121 C-118.26539156 119.10914439 -116.53638958 117.21313308 -114.8125 115.3125 C-109.97540335 110.03042488 -105.08504223 104.7984073 -100.19262695 99.56762695 C-95.71563601 94.7773629 -91.28160308 89.95027556 -86.859375 85.109375 C-82.95352965 80.84794771 -78.99484525 76.63530769 -75.03320312 72.42578125 C-72.14374871 69.34414609 -69.3092376 66.22860809 -66.5390625 63.0390625 C-63.0011466 58.97045922 -59.32999854 55.04119162 -55.625 51.125 C-50.80860094 46.01224333 -46.04718972 40.86291778 -41.37109375 35.62109375 C-38.28609256 32.21082061 -35.14354903 28.85624853 -32 25.5 C-21.70231584 14.51102963 -21.70231584 14.51102963 -12 3 C-8.59059048 -0.53117414 -4.68329115 -1.16440145 0 0 Z " fill="#0176CC" transform="translate(483,380)"/>
<path d="M0 0 C7.43919881 6.16833568 10.29511345 14.06579413 11.625 23.375 C5.685 23.375 -0.255 23.375 -6.375 23.375 C-10.375 15.375 -10.375 15.375 -10.375 13.375 C-17.32854504 10.55599525 -24.05964607 8.76193098 -31.51171875 11.0234375 C-37.24960676 13.93594465 -39.24587545 18.42627906 -41.4609375 24.2109375 C-44.38436511 34.33049461 -42.29559544 44.53380912 -37.6875 53.75 C-34.24914825 57.65299387 -30.48676826 59.84748119 -25.32421875 60.72265625 C-19.43697725 60.9855816 -14.67383798 59.22684171 -10.125 55.5625 C-7.88537126 52.91956524 -7.88537126 52.91956524 -5.375 47.375 C0.235 47.375 5.845 47.375 11.625 47.375 C10.35278756 57.55269951 6.90483912 64.38432348 -1.09375 70.90625 C-11.10522297 77.35199287 -22.86590236 78.71069462 -34.3125 76.3125 C-44.23195207 73.62097988 -52.37876538 67.2162361 -57.5546875 58.35546875 C-64.06348392 45.17159279 -63.65776439 30.12129214 -59.375 16.375 C-55.70117375 7.30176245 -49.49955609 0.56712677 -40.625 -3.5625 C-27.35544079 -9.15467138 -12.09190806 -8.04603334 0 0 Z " fill="#FAFDFE" transform="translate(657.375,807.625)"/>
<path d="M0 0 C5.61 0 11.22 0 17 0 C17.33 9.24 17.66 18.48 18 28 C20.31 26.02 22.62 24.04 25 22 C30.63899038 19.07482658 37.20021417 18.91341741 43.28125 20.65234375 C49.03861612 23.23208665 53.08502948 27.45291241 56.06445312 32.97167969 C57.44000185 37.42426485 57.24520389 41.69931172 57.1953125 46.33203125 C57.1924826 47.32377853 57.18965271 48.31552582 57.18673706 49.33732605 C57.17556804 52.49584159 57.15046927 55.65407057 57.125 58.8125 C57.11496597 60.95767819 57.10584086 63.10286083 57.09765625 65.24804688 C57.07563939 70.49880784 57.0411319 75.74935538 57 81 C51.06 81 45.12 81 39 81 C38.98582031 78.09832031 38.97164062 75.19664062 38.95703125 72.20703125 C38.92639952 69.39042597 38.88731372 66.57405576 38.84741211 63.75756836 C38.82424449 61.80322611 38.80983929 59.84875923 38.80444336 57.89428711 C38.79514468 55.08107957 38.75413525 52.26982888 38.70703125 49.45703125 C38.7109639 48.58601273 38.71489655 47.7149942 38.71894836 46.81758118 C38.6123574 42.36537957 38.4359097 40.55078048 35.5847168 36.94824219 C32.34140684 34.50358237 30.83674882 34.31944809 26.93359375 34.5703125 C23.85779336 35.2538237 22.12743341 36.74363123 20 39 C18.69079497 42.9276151 18.76537132 46.72570631 18.68359375 50.82421875 C18.66281265 51.68561966 18.64203156 52.54702057 18.62062073 53.43452454 C18.55525091 56.18543544 18.49629868 58.93644156 18.4375 61.6875 C18.39430283 63.55274421 18.35068815 65.4179788 18.30664062 67.28320312 C18.19879684 71.85537258 18.09963009 76.42761462 18 81 C12.06 81 6.12 81 0 81 C0 54.27 0 27.54 0 0 Z " fill="#FBFDFE" transform="translate(680,802)"/>
<path d="M0 0 C4.48311193 3.47468578 7.1010017 7.3480415 8.22265625 12.86328125 C8.30626789 14.35914567 8.34048679 15.85825216 8.33618164 17.35644531 C8.33610611 18.23705627 8.33603058 19.11766724 8.33595276 20.02496338 C8.33079147 20.96676453 8.32563019 21.90856567 8.3203125 22.87890625 C8.31889755 23.84987244 8.3174826 24.82083862 8.31602478 25.82122803 C8.31043288 28.9186106 8.29788184 32.01592057 8.28515625 35.11328125 C8.2801402 37.21484271 8.27557748 39.31640529 8.27148438 41.41796875 C8.2604661 46.56643417 8.24320699 51.71484541 8.22265625 56.86328125 C3.27265625 56.86328125 -1.67734375 56.86328125 -6.77734375 56.86328125 C-7.27234375 53.89328125 -7.27234375 53.89328125 -7.77734375 50.86328125 C-8.18984375 51.27320313 -8.60234375 51.683125 -9.02734375 52.10546875 C-14.92722756 57.61027105 -20.56786222 59.41978661 -28.69921875 59.1796875 C-35.17419038 58.19383656 -40.74223222 54.99887774 -44.77734375 49.86328125 C-46.87056297 45.3778115 -47.64995258 40.75907605 -46.77734375 35.86328125 C-44.22921266 29.45147232 -39.99606812 25.69512411 -33.77734375 22.86328125 C-30.03283874 21.95376412 -26.29668062 21.54035389 -22.46484375 21.17578125 C-20.5096794 20.97044436 -18.55519485 20.75849704 -16.6015625 20.5390625 C-15.74651123 20.45567627 -14.89145996 20.37229004 -14.01049805 20.28637695 C-11.50211374 19.96154724 -11.50211374 19.96154724 -8.77734375 17.86328125 C-9.08524637 15.01518199 -9.43212566 13.28041977 -11.27734375 11.05078125 C-14.99207471 9.28628405 -18.77249354 8.83674292 -22.77734375 9.86328125 C-23.525 10.69214844 -24.27265625 11.52101563 -25.04296875 12.375 C-28.30652618 15.34483726 -29.6766102 15.3992569 -33.90429688 15.30273438 C-34.62552734 15.26083984 -35.34675781 15.21894531 -36.08984375 15.17578125 C-36.83041016 15.15322266 -37.57097656 15.13066406 -38.33398438 15.10742188 C-40.14931732 15.04886275 -41.96360056 14.95919011 -43.77734375 14.86328125 C-43.11281505 7.80905348 -41.01710358 4.4688638 -35.77734375 -0.13671875 C-25.71532666 -6.3402081 -9.94446849 -6.36008864 0 0 Z " fill="#FAFDFE" transform="translate(431.77734375,826.13671875)"/>
<path d="M0 0 C4.54792434 3.47003791 6.5129868 7.21492021 8.00390625 12.74609375 C8.38153488 16.2238232 8.35561928 19.65756518 8.296875 23.15234375 C8.29263016 24.11765015 8.28838531 25.08295654 8.28401184 26.07751465 C8.26733722 29.13400205 8.22970617 32.1898086 8.19140625 35.24609375 C8.17634491 37.3294175 8.16265905 39.41275168 8.15039062 41.49609375 C8.11747049 46.5796859 8.06576641 51.66277474 8.00390625 56.74609375 C3.05390625 56.74609375 -1.89609375 56.74609375 -6.99609375 56.74609375 C-7.49109375 53.28109375 -7.49109375 53.28109375 -7.99609375 49.74609375 C-8.53234375 50.50921875 -9.06859375 51.27234375 -9.62109375 52.05859375 C-14.22344663 57.26651938 -19.53581568 58.4068508 -26.18359375 59.05859375 C-31.83635722 58.59525248 -37.39525213 57.06848535 -41.7109375 53.21484375 C-46.03910689 48.09631299 -46.41046116 44.4043358 -46.33203125 37.86328125 C-45.83741207 33.27367535 -44.41666359 29.88161611 -40.99609375 26.74609375 C-35.074809 22.84819451 -29.12418771 21.8787793 -22.18359375 21.12109375 C-20.32209638 20.90674724 -18.46135684 20.68568359 -16.6015625 20.45703125 C-15.78840576 20.36728027 -14.97524902 20.2775293 -14.13745117 20.18505859 C-11.71053819 19.82750264 -11.71053819 19.82750264 -8.99609375 17.74609375 C-9.31686417 14.77896735 -9.5206315 13.19478448 -11.73046875 11.109375 C-14.35406429 9.53069423 -15.95235463 9.28321252 -18.99609375 9.24609375 C-19.84171875 9.21515625 -20.68734375 9.18421875 -21.55859375 9.15234375 C-24.25290207 9.52784401 -24.25290207 9.52784401 -25.79296875 12.2578125 C-27.99609375 14.74609375 -27.99609375 14.74609375 -31.88671875 15.234375 C-33.34064915 15.20133113 -34.7941795 15.14196338 -36.24609375 15.05859375 C-36.99117187 15.03603516 -37.73625 15.01347656 -38.50390625 14.99023438 C-40.33550275 14.93152936 -42.16606028 14.84185132 -43.99609375 14.74609375 C-43.4054208 8.77453432 -42.28812748 5.82233081 -38.1953125 1.546875 C-27.95467171 -6.83844543 -11.02725525 -6.92710164 0 0 Z " fill="#FAFCFE" transform="translate(792.99609375,826.25390625)"/>
<path d="M0 0 C4.21646315 2.76572835 6.99706908 6.63810124 8.94140625 11.2734375 C9.18191528 13.53875732 9.18191528 13.53875732 9.16845703 16.04199219 C9.16830597 16.98266541 9.16815491 17.92333862 9.16799927 18.89251709 C9.1576767 19.89993958 9.14735413 20.90736206 9.13671875 21.9453125 C9.13388885 22.98286682 9.13105896 24.02042114 9.12814331 25.0894165 C9.1169549 28.40087451 9.09185252 31.71206134 9.06640625 35.0234375 C9.05637473 37.26952734 9.04724918 39.51562143 9.0390625 41.76171875 C9.0170199 47.26572937 8.982499 52.76953747 8.94140625 58.2734375 C3.33140625 58.2734375 -2.27859375 58.2734375 -8.05859375 58.2734375 C-8.09597656 55.51613281 -8.13335937 52.75882813 -8.171875 49.91796875 C-8.21811832 47.24039893 -8.26934174 44.56296735 -8.32104492 41.88549805 C-8.35424924 40.028162 -8.38229516 38.17072613 -8.4050293 36.31323242 C-8.43865817 33.63937952 -8.49097749 30.96643757 -8.546875 28.29296875 C-8.55326492 27.46569778 -8.55965485 26.63842682 -8.5662384 25.78608704 C-8.68411669 21.13845609 -9.08581363 18.06778261 -12.05859375 14.2734375 C-15.26796784 11.94940799 -18.17365396 11.79773059 -22.05859375 12.2734375 C-26.07466123 14.73784254 -27.69605273 16.8224451 -29.05859375 21.2734375 C-29.29093944 24.1621029 -29.43004088 26.96484977 -29.47265625 29.85546875 C-29.4920224 30.66964767 -29.51138855 31.4838266 -29.53134155 32.32267761 C-29.59088127 34.91032602 -29.63741958 37.49801953 -29.68359375 40.0859375 C-29.72179715 41.84572199 -29.76085025 43.60548824 -29.80078125 45.36523438 C-29.89815351 49.6678712 -29.97792367 53.97032568 -30.05859375 58.2734375 C-35.66859375 58.2734375 -41.27859375 58.2734375 -47.05859375 58.2734375 C-47.05859375 38.4734375 -47.05859375 18.6734375 -47.05859375 -1.7265625 C-41.77859375 -1.7265625 -36.49859375 -1.7265625 -31.05859375 -1.7265625 C-30.72859375 0.5834375 -30.39859375 2.8934375 -30.05859375 5.2734375 C-29.38763672 4.65855469 -29.38763672 4.65855469 -28.703125 4.03125 C-28.09855469 3.49242187 -27.49398438 2.95359375 -26.87109375 2.3984375 C-26.27941406 1.86476563 -25.68773437 1.33109375 -25.078125 0.78125 C-17.65716061 -4.75935398 -7.96538713 -4.01831694 0 0 Z " fill="#FCFEFE" transform="translate(502.05859375,824.7265625)"/>
<path d="M0 0 C4.96801625 3.38728381 7.80921179 7.08642536 9 13 C9.08384385 14.52648786 9.11781972 16.05617824 9.11352539 17.58496094 C9.11344986 18.48559265 9.11337433 19.38622437 9.11329651 20.31414795 C9.10813522 21.27782288 9.10297394 22.2414978 9.09765625 23.234375 C9.0962413 24.22753723 9.09482635 25.22069946 9.09336853 26.24395752 C9.08777588 29.41266912 9.0752247 32.58130979 9.0625 35.75 C9.05748405 37.89973856 9.05292131 40.04947823 9.04882812 42.19921875 C9.03780885 47.46617312 9.02054923 52.73307454 9 58 C3.39 58 -2.22 58 -8 58 C-8.05607422 53.98972656 -8.05607422 53.98972656 -8.11328125 49.8984375 C-8.15954896 47.29695656 -8.21076347 44.69561652 -8.26245117 42.09423828 C-8.29561773 40.29224271 -8.32367525 38.49014533 -8.34643555 36.68798828 C-8.38013432 34.09103177 -8.43245649 31.49500134 -8.48828125 28.8984375 C-8.49467117 28.0982016 -8.5010611 27.2979657 -8.50764465 26.47348022 C-8.63433916 21.60687695 -9.35772052 18.23762575 -12 14 C-14.48456105 12.04784489 -16.26468047 11.96631339 -19.4375 11.5625 C-23.93531957 12.11486381 -25.23307437 13.50065288 -28 17 C-29.28774446 20.86323338 -29.23382793 24.57490537 -29.31640625 28.60546875 C-29.33718735 29.44467361 -29.35796844 30.28387848 -29.37937927 31.14851379 C-29.44474018 33.82809294 -29.50369714 36.50776969 -29.5625 39.1875 C-29.60569802 41.00456737 -29.64931273 42.82162488 -29.69335938 44.63867188 C-29.80119168 49.09234934 -29.90036495 53.54610139 -30 58 C-35.61 58 -41.22 58 -47 58 C-47 38.2 -47 18.4 -47 -2 C-41.72 -2 -36.44 -2 -31 -2 C-30.67 0.64 -30.34 3.28 -30 6 C-29.319375 5.071875 -28.63875 4.14375 -27.9375 3.1875 C-20.87423841 -5.13495029 -9.0408807 -5.06289319 0 0 Z " fill="#FDFEFE" transform="translate(255,825)"/>
<path d="M0 0 C5.8965442 3.71301162 8.82934294 7.55485262 10.625 14.27734375 C10.74875 14.84582031 10.8725 15.41429687 11 16 C8.26916098 16.13548815 5.54508193 16.23429855 2.8125 16.3125 C2.04357422 16.35439453 1.27464844 16.39628906 0.48242188 16.43945312 C-5.40589749 16.56581191 -5.40589749 16.56581191 -8.625 13.5 C-9.40875 12.675 -10.1925 11.85 -11 11 C-14.34615584 10.39919338 -14.34615584 10.39919338 -17.8125 10.6875 C-19.55466797 10.75517578 -19.55466797 10.75517578 -21.33203125 10.82421875 C-22.65267578 10.91123047 -22.65267578 10.91123047 -24 11 C-24 12.98 -24 14.96 -24 17 C-19.57069738 18.55845833 -15.14704108 19.97931426 -10.60546875 21.171875 C-9.81897949 21.38046143 -9.03249023 21.58904785 -8.22216797 21.80395508 C-6.64161904 22.21950973 -5.05863348 22.62592729 -3.47314453 23.0222168 C2.41209711 24.57753868 7.26639035 26.51515951 10.875 31.6875 C12.86244588 37.53942399 12.90982185 42.64273645 10.3125 48.3125 C6.76562051 54.54116642 1.65159619 57.02215795 -5 59 C-14.77789659 61.30253694 -25.53894179 60.83508581 -34.3125 55.6875 C-37.5320071 53.48771726 -39.97889041 51.39546411 -42 48 C-42.37944643 45.67372058 -42.71776744 43.34006417 -43 41 C-40.26916098 40.86451185 -37.54508193 40.76570145 -34.8125 40.6875 C-33.65911133 40.6246582 -33.65911133 40.6246582 -32.48242188 40.56054688 C-28.15154528 40.46760961 -26.59427007 40.4719462 -23.23046875 43.4609375 C-22.49441406 44.29882812 -21.75835937 45.13671875 -21 46 C-16.99927307 47.3632614 -13.1042109 47.23004394 -9 46.375 C-6.76399954 45.13649556 -6.76399954 45.13649556 -6.1875 42.5 C-5.97507002 40.08543713 -5.97507002 40.08543713 -6 38 C-7.16015625 37.75765625 -8.3203125 37.5153125 -9.515625 37.265625 C-34.89444693 31.87143464 -34.89444693 31.87143464 -39.1875 26.875 C-42.39692583 21.78418661 -42.49571954 17.95781446 -42 12 C-39.97492186 6.03726993 -36.19014753 2.7742306 -30.84375 -0.19921875 C-21.19575228 -4.66298393 -9.63004253 -4.61781903 0 0 Z " fill="#F9FCFE" transform="translate(317,825)"/>
<path d="M0 0 C5.61 0 11.22 0 17 0 C17 4.95 17 9.9 17 15 C20.96 15 24.92 15 29 15 C29 19.29 29 23.58 29 28 C25.04 28 21.08 28 17 28 C17.0688642 32.3605117 17.15682189 36.72009398 17.26245117 41.07983398 C17.29569423 42.56279854 17.32372823 44.04588944 17.34643555 45.52905273 C17.37999468 47.66184293 17.43230638 49.79347612 17.48828125 51.92578125 C17.51446533 53.20880127 17.54064941 54.49182129 17.56762695 55.8137207 C17.75258829 58.94015386 17.75258829 58.94015386 19.30151367 60.93041992 C22.07290509 62.67563564 24.82403952 62.17977135 28 62 C29.32 66.29 30.64 70.58 32 75 C27.595041 75.8809918 23.52103552 76.2504034 19.0625 76.3125 C18.37220703 76.34150391 17.68191406 76.37050781 16.97070312 76.40039062 C11.79662956 76.46414698 8.96495703 75.2611185 5 72 C0.65821126 66.25006356 -0.14606514 62.08612797 -0.09765625 55.05078125 C-0.0962413 54.27816452 -0.09482635 53.50554779 -0.09336853 52.70951843 C-0.08777466 50.24380611 -0.07522333 47.77818485 -0.0625 45.3125 C-0.05748421 43.63997527 -0.05292144 41.96744912 -0.04882812 40.29492188 C-0.03780724 36.19657954 -0.02054684 32.09830521 0 28 C-2.97 28 -5.94 28 -9 28 C-9 23.71 -9 19.42 -9 15 C-6.03 15 -3.06 15 0 15 C0 10.05 0 5.1 0 0 Z " fill="#FBFDFE" transform="translate(817,808)"/>
<path d="M0 0 C5.61 0 11.22 0 17 0 C17 4.95 17 9.9 17 15 C20.96 15 24.92 15 29 15 C29 19.29 29 23.58 29 28 C25.04 28 21.08 28 17 28 C17.0688642 32.3605117 17.15682189 36.72009398 17.26245117 41.07983398 C17.29569423 42.56279854 17.32372823 44.04588944 17.34643555 45.52905273 C17.37999468 47.66184293 17.43230638 49.79347612 17.48828125 51.92578125 C17.51446533 53.20880127 17.54064941 54.49182129 17.56762695 55.8137207 C17.75258829 58.94015386 17.75258829 58.94015386 19.30151367 60.93041992 C22.07290509 62.67563564 24.82403952 62.17977135 28 62 C28.50757862 63.41396902 29.00574925 64.83131729 29.5 66.25 C29.7784375 67.03890625 30.056875 67.8278125 30.34375 68.640625 C31 71 31 71 31 75 C27.22340749 76.18857226 23.56479834 76.20281679 19.625 76.25 C18.33851563 76.27578125 17.05203125 76.3015625 15.7265625 76.328125 C10.56816511 75.87392649 7.30424333 74.3767013 3.75 70.625 C0.27181805 65.40772708 -0.28160341 61.03958037 -0.1953125 54.85546875 C-0.1924826 54.08568192 -0.18965271 53.31589508 -0.18673706 52.52278137 C-0.17559157 50.07752575 -0.15049781 47.63264388 -0.125 45.1875 C-0.1149629 43.52409385 -0.10583833 41.86068193 -0.09765625 40.19726562 C-0.07567073 36.13136763 -0.04118014 32.06574706 0 28 C-2.97 28 -5.94 28 -9 28 C-9 23.71 -9 19.42 -9 15 C-6.03 15 -3.06 15 0 15 C0 10.05 0 5.1 0 0 Z " fill="#FAFDFE" transform="translate(529,808)"/>
<path d="M0 0 C5.61 0 11.22 0 17 0 C17 4.95 17 9.9 17 15 C20.96 15 24.92 15 29 15 C29 19.29 29 23.58 29 28 C25.04 28 21.08 28 17 28 C17.09344448 32.52104123 17.1995163 37.04154113 17.31738281 41.56201172 C17.35570301 43.10034021 17.39055056 44.63875925 17.421875 46.17724609 C17.46746059 48.38672276 17.5254634 50.59557448 17.5859375 52.8046875 C17.59748871 53.49432587 17.60903992 54.18396423 17.62094116 54.89450073 C17.64951022 58.8920154 17.64951022 58.8920154 20 62 C22.68839385 62.26991906 25.29141936 62.08737357 28 62 C28.50512244 63.60256108 29.00391627 65.20711792 29.5 66.8125 C29.7784375 67.70582031 30.056875 68.59914063 30.34375 69.51953125 C31 72 31 72 31 75 C26.8338346 75.98356688 22.83867385 76.23067996 18.5625 76.3125 C16.64630859 76.36857422 16.64630859 76.36857422 14.69140625 76.42578125 C9.2691237 75.80035395 6.27879637 73.41704463 2.6875 69.4375 C-0.36184425 65.03289164 -0.13211148 60.98549119 -0.09765625 55.83203125 C-0.0962413 55.03721848 -0.09482635 54.2424057 -0.09336853 53.42350769 C-0.08777378 50.88646675 -0.07522228 48.34951425 -0.0625 45.8125 C-0.05748432 44.09179815 -0.05292153 42.37109492 -0.04882812 40.65039062 C-0.03780607 36.4335597 -0.02054506 32.21679484 0 28 C-2.97 28 -5.94 28 -9 28 C-9 23.71 -9 19.42 -9 15 C-6.03 15 -3.06 15 0 15 C0 10.05 0 5.1 0 0 Z " fill="#FDFEFE" transform="translate(345,808)"/>
<path d="M0 0 C5.94 0 11.88 0 18 0 C18 26.73 18 53.46 18 81 C12.06 81 6.12 81 0 81 C0 54.27 0 27.54 0 0 Z " fill="#F8FCFE" transform="translate(175,802)"/>
<path d="M0 0 C0.33 0 0.66 0 1 0 C2.1999983 6.3313343 1.94283771 12.39615122 1.625 18.8125 C1.58117188 19.84181641 1.53734375 20.87113281 1.4921875 21.93164062 C1.23661803 27.5435202 0.83023838 33.1112509 0.23632812 38.69702148 C-0.85696824 49.3510138 -1.10920633 60.00758081 -0.9375 70.70703125 C-1 74 -1 74 -1.5 75.92382812 C-2.04859262 78.20177325 -2.09782356 80.17128764 -2.0625 82.51171875 C-2.05476562 83.35154297 -2.04703125 84.19136719 -2.0390625 85.05664062 C-2.02617188 85.92482422 -2.01328125 86.79300781 -2 87.6875 C-1.97460788 89.42051212 -1.95353507 91.1535948 -1.9375 92.88671875 C-1.92589844 93.65201904 -1.91429687 94.41731934 -1.90234375 95.20581055 C-2 97 -2 97 -3 98 C-3.23527773 100.34987262 -3.41386417 102.70556039 -3.5625 105.0625 C-3.64628906 106.35285156 -3.73007813 107.64320313 -3.81640625 108.97265625 C-3.87699219 109.97167969 -3.93757812 110.97070312 -4 112 C-3.34 112.33 -2.68 112.66 -2 113 C-2 113.99 -2 114.98 -2 116 C-2.66 116 -3.32 116 -4 116 C-3.67 116.99 -3.34 117.98 -3 119 C-3.495 119.495 -3.495 119.495 -4 120 C-4.14826111 121.59262476 -4.22798704 123.19165941 -4.28125 124.7902832 C-4.33640274 126.36723465 -4.33640274 126.36723465 -4.39266968 127.9760437 C-4.42808868 129.15570709 -4.46350769 130.33537048 -4.5 131.55078125 C-4.54033356 132.81133331 -4.58066711 134.07188538 -4.6222229 135.37063599 C-4.73385897 138.929179 -4.83649103 142.48793235 -4.93628693 146.04682541 C-4.9998952 148.3087731 -5.0654062 150.5706604 -5.13104248 152.83255005 C-6.60084566 204.20350968 -6.67924449 255.6118124 -7 307 C-7.33 307 -7.66 307 -8 307 C-8.28015079 222.18303448 -7.33642507 137.78248197 0 0 Z " fill="#01A3FB" transform="translate(9,265)"/>
<path d="M0 0 C2.99452434 2.24589325 3.81623122 3.44869367 5 7 C5.085409 9.94964113 5.11582927 12.87503019 5.09765625 15.82421875 C5.0962413 16.68561966 5.09482635 17.54702057 5.09336853 18.43452454 C5.0877714 21.18555169 5.07521946 23.93649744 5.0625 26.6875 C5.05748463 28.5527332 5.05292179 30.41796767 5.04882812 32.28320312 C5.03865384 36.85552534 5.01907787 41.42767155 5 46 C10.94 46 16.88 46 23 46 C23 31.81 23 17.62 23 3 C23.33 3 23.66 3 24 3 C24 17.52 24 32.04 24 47 C17.4 47 10.8 47 4 47 C2.34905858 43.69811715 2.79940728 40.01146011 2.75390625 36.37890625 C2.72097301 34.62173971 2.68776128 32.86457838 2.65429688 31.10742188 C2.60683609 28.33133465 2.56239789 25.55526932 2.52319336 22.77905273 C2.48352627 20.10378092 2.43197391 17.42894104 2.37890625 14.75390625 C2.3704921 13.92258682 2.36207794 13.0912674 2.35340881 12.23475647 C2.26952653 8.33284689 2.21162322 6.31743483 0 3 C-5.42374554 1.61645997 -5.42374554 1.61645997 -10.375 3.4375 C-10.91125 3.953125 -11.4475 4.46875 -12 5 C-12.66 5 -13.32 5 -14 5 C-14.33 18.86 -14.66 32.72 -15 47 C-20.94 47 -26.88 47 -33 47 C-33 46.67 -33 46.34 -33 46 C-27.72 46 -22.44 46 -17 46 C-17.03480469 43.39867187 -17.06960938 40.79734375 -17.10546875 38.1171875 C-17.12889491 35.58529761 -17.14709403 33.05342 -17.16479492 30.52148438 C-17.17983995 28.76784827 -17.20028104 27.01424953 -17.22631836 25.26074219 C-17.26289121 22.73362991 -17.2797692 20.20701704 -17.29296875 17.6796875 C-17.30845261 16.90132538 -17.32393646 16.12296326 -17.33988953 15.3210144 C-17.34174316 9.26491214 -15.93600113 5.22070718 -11.875 0.5625 C-7.75598394 -1.67609568 -4.43590905 -1.31004417 0 0 Z " fill="#0064CD" transform="translate(489,837)"/>
<path d="M0 0 C3.14588944 -0.02683697 6.29155271 -0.04675902 9.4375 -0.0625 C10.33533203 -0.07087891 11.23316406 -0.07925781 12.15820312 -0.08789062 C13.01220703 -0.09111328 13.86621094 -0.09433594 14.74609375 -0.09765625 C15.93223267 -0.10551147 15.93223267 -0.10551147 17.14233398 -0.11352539 C19 0 19 0 20 1 C20.07226502 2.85287502 20.0838122 4.70833878 20.0625 6.5625 C20.05347656 7.57441406 20.04445313 8.58632813 20.03515625 9.62890625 C20.02355469 10.41136719 20.01195312 11.19382812 20 12 C20.66 12.33 21.32 12.66 22 13 C21.67 13.33 21.34 13.66 21 14 C25.95 14.99 25.95 14.99 31 16 C32.08489672 19.25469015 32.13323992 21.70543209 32.125 25.125 C32.12886719 26.73761719 32.12886719 26.73761719 32.1328125 28.3828125 C32 31 32 31 31 32 C29.14712498 32.07226502 27.29166122 32.0838122 25.4375 32.0625 C24.42558594 32.05347656 23.41367187 32.04445313 22.37109375 32.03515625 C21.19740234 32.01775391 21.19740234 32.01775391 20 32 C20.14046255 34.95867918 20.28712224 37.91682264 20.4375 40.875 C20.47681641 41.71675781 20.51613281 42.55851563 20.55664062 43.42578125 C20.59853516 44.23144531 20.64042969 45.03710938 20.68359375 45.8671875 C20.72025146 46.61081543 20.75690918 47.35444336 20.79467773 48.12060547 C20.89955865 50.08864312 20.89955865 50.08864312 22 52 C21.67 52.66 21.34 53.32 21 54 C20.9310528 55.37342831 20.91532292 56.75002102 20.9375 58.125 C20.958125 59.40375 20.97875 60.6825 21 62 C23.97 62 26.94 62 30 62 C30.67184618 64.10251861 31.33730968 66.20707763 32 68.3125 C32.37125 69.48425781 32.7425 70.65601563 33.125 71.86328125 C34 75 34 75 34 78 C33.01 78.33 32.02 78.66 31 79 C30.93941406 78.41992188 30.87882813 77.83984375 30.81640625 77.2421875 C30.33983439 72.79907137 29.78991334 68.40094577 29 64 C27.9275 64.2475 26.855 64.495 25.75 64.75 C22 65 22 65 19.79003906 63.46386719 C17.35951291 60.11841303 17.54202049 57.93675032 17.609375 53.828125 C17.61503479 53.1457074 17.62069458 52.46328979 17.62652588 51.76019287 C17.64884364 49.58940238 17.69902492 47.42028794 17.75 45.25 C17.77007124 43.7747635 17.78832093 42.29950101 17.8046875 40.82421875 C17.8486912 37.21560499 17.91768417 33.60796619 18 30 C21.96 30 25.92 30 30 30 C30 25.71 30 21.42 30 17 C26.04 17 22.08 17 18 17 C18 12.05 18 7.1 18 2 C12.39 2 6.78 2 1 2 C1 6.95 1 11.9 1 17 C-1.97 17 -4.94 17 -8 17 C-8 20.96 -8 24.92 -8 29 C-8.33 29 -8.66 29 -9 29 C-9 24.71 -9 20.42 -9 16 C-6.03 16 -3.06 16 0 16 C0 10.72 0 5.44 0 0 Z " fill="#0971D2" transform="translate(528,806)"/>
<path d="M0 0 C-0.19131943 8.95722768 -0.19131943 8.95722768 -3.375 13.0625 C-8.19879353 16.62291903 -13.19835177 16.66358722 -19 16 C-21.6875 14.4375 -21.6875 14.4375 -23 12 C-23.0625 8.4375 -23.0625 8.4375 -22 5 C-18.10073115 1.93315933 -14.11746841 1.32049375 -9.3125 0.8125 C-8.63638672 0.73064453 -7.96027344 0.64878906 -7.26367188 0.56445312 C-4.8370905 0.27712657 -2.44576305 0 0 0 Z " fill="#077FEC" transform="translate(424,856)"/>
<path d="M0 0 C0.31306141 5.21769009 -0.02138164 8.63135974 -3 13 C-7.39433561 16.21536752 -11.47224896 16.34997464 -16.73046875 16.3984375 C-19.48422357 15.91499001 -20.37604686 15.25174333 -22 13 C-22.65439093 6.89235127 -22.65439093 6.89235127 -20.625 4.125 C-17.13897763 1.7115999 -13.61108082 1.45618777 -9.5 0.9375 C-8.46552734 0.80118164 -8.46552734 0.80118164 -7.41015625 0.66210938 C-2.30245536 0 -2.30245536 0 0 0 Z " fill="#057ADE" transform="translate(785,856)"/>
<path d="M0 0 C4.1716143 4.1716143 2.99186792 13.32947372 3.00469971 19.12127686 C2.94905474 24.06337998 2.76079103 28.99943197 2.5625 33.9375 C2.5090649 35.41078204 2.45632754 36.88408956 2.40429688 38.35742188 C2.27879261 41.90540749 2.13916272 45.45242113 2 49 C-4.6 49 -11.2 49 -18 49 C-18.06058594 46.32648437 -18.12117187 43.65296875 -18.18359375 40.8984375 C-18.24547696 38.29701168 -18.30882569 35.69562536 -18.37231445 33.09423828 C-18.41551311 31.29219102 -18.45719824 29.4901068 -18.49731445 27.68798828 C-18.55538376 25.09135825 -18.6189708 22.4949117 -18.68359375 19.8984375 C-18.70030624 19.0982016 -18.71701874 18.2979657 -18.73423767 17.47348022 C-18.75418289 16.71314484 -18.77412811 15.95280945 -18.79467773 15.16943359 C-18.81799416 14.17682022 -18.81799416 14.17682022 -18.84178162 13.16415405 C-19.04219563 10.42283666 -19.54812742 7.71123551 -20 5 C-25.94 4.01 -25.94 4.01 -32 3 C-32.433125 5.1965625 -32.433125 5.1965625 -32.875 7.4375 C-33.3671875 9.93359375 -33.3671875 9.93359375 -34 12 C-34.99 12.495 -34.99 12.495 -36 13 C-36.33 24.88 -36.66 36.76 -37 49 C-43.27 49 -49.54 49 -56 49 C-56 48.67 -56 48.34 -56 48 C-50.06 48 -44.12 48 -38 48 C-38.05220703 43.86404297 -38.05220703 43.86404297 -38.10546875 39.64453125 C-38.12888083 36.96705154 -38.147088 34.28958334 -38.16479492 31.61206055 C-38.17985946 29.75458655 -38.20031509 27.89714799 -38.22631836 26.03979492 C-38.26280459 23.36628461 -38.2797497 20.69324556 -38.29296875 18.01953125 C-38.30845261 17.19226028 -38.32393646 16.36498932 -38.33988953 15.51264954 C-38.34155284 9.78387569 -37.30469511 6.47541326 -33.3125 2.1875 C-29.91635199 0.4435321 -26.6895784 0.31918494 -23 1 C-20.1899654 2.79363911 -18.49059532 4.01880935 -17 7 C-16.91288225 10.06242321 -16.8845154 13.10186465 -16.90234375 16.1640625 C-16.9037587 17.07127045 -16.90517365 17.97847839 -16.90663147 18.91317749 C-16.91223904 21.81715155 -16.92479282 24.72104915 -16.9375 27.625 C-16.94251402 29.59114472 -16.9470771 31.55729065 -16.95117188 33.5234375 C-16.96136101 38.34901166 -16.98093493 43.17442 -17 48 C-11.06 48 -5.12 48 1 48 C0.67 32.16 0.34 16.32 0 0 Z " fill="#0365D9" transform="translate(736,835)"/>
<path d="M0 0 C0.33 0 0.66 0 1 0 C2.45352385 14.81510615 3.52663988 29.6147623 4.2890625 44.48046875 C4.39807963 46.55586412 4.50732764 48.63124737 4.61679077 50.70661926 C4.84302542 55.0148033 5.06618653 59.32313222 5.28710938 63.6315918 C5.5676858 69.09768527 5.85658774 74.56330205 6.1478672 80.02883434 C6.37449211 84.30054117 6.59638866 88.57248428 6.81696701 92.84450722 C6.92152167 94.85800231 7.02752899 96.87142261 7.13515091 98.88475609 C7.81205341 111.60337352 8.1355857 124.26328179 8 137 C7.67 137 7.34 137 7 137 C7 132.71 7 128.42 7 124 C6.34 123.67 5.68 123.34 5 123 C5.01740234 122.07767578 5.01740234 122.07767578 5.03515625 121.13671875 C5.04417969 120.32847656 5.05320312 119.52023437 5.0625 118.6875 C5.07410156 117.88699219 5.08570313 117.08648437 5.09765625 116.26171875 C5.09657855 113.83138666 5.09657855 113.83138666 4 111 C3.97881971 108.45231338 4.008041 105.92123038 4.0625 103.375 C4.17445998 94.03100685 3.61762574 84.75458326 3 75.4375 C2.3880968 66.17820489 1.85639621 56.98616241 2.0390625 47.70214844 C2.13297374 39.50448014 1.38385823 31.34469887 0.7109375 23.18041992 C0.09139736 15.43450864 -0.11562102 7.76989344 0 0 Z " fill="#0090F8" transform="translate(1012,244)"/>
<path d="M0 0 C0.69609375 0.70640625 1.3921875 1.4128125 2.109375 2.140625 C5.0726583 5.1039083 8.15446295 7.92625947 11.25 10.75 C16.64376937 15.69525025 21.8845029 20.76553785 27 26 C24 26 24 26 22 25 C23.13077136 28.91420857 24.08812937 31.20945732 27 34 C28.63429971 37.55700526 29.78888405 41.28014387 31 45 C31.66 45 32.32 45 33 45 C33.47050781 46.03640625 33.94101562 47.0728125 34.42578125 48.140625 C35.05443703 49.51053163 35.68335723 50.88031695 36.3125 52.25 C36.62123047 52.93191406 36.92996094 53.61382812 37.24804688 54.31640625 C38.89173072 57.8806049 40.63078353 60.85957231 43 64 C43.62109375 65.953125 43.62109375 65.953125 44 68 C44.17660156 68.77859375 44.35320313 69.5571875 44.53515625 70.359375 C44.70917969 71.14828125 44.88320313 71.9371875 45.0625 72.75 C45.23910156 73.54921875 45.41570313 74.3484375 45.59765625 75.171875 C45.73042969 75.77515625 45.86320313 76.3784375 46 77 C42.8106067 75.40530335 42.18052726 72.09558367 40.875 68.9375 C30.80864324 45.37715504 17.87802041 23.56190579 1.3984375 3.890625 C0 2 0 2 0 0 Z " fill="#096FC8" transform="translate(730,291)"/>
<path d="M0 0 C0.99 0.495 0.99 0.495 2 1 C-3.67082423 6.21145579 -9.62092406 10.69527105 -16 15 C-17.00933594 15.69738281 -18.01867187 16.39476562 -19.05859375 17.11328125 C-24.27499905 20.67554554 -29.14139168 23.67866463 -35 26 C-36.44763322 26.77298151 -37.88443983 27.56642934 -39.3125 28.375 C-42.63639833 30.25075052 -45.98003816 32.06807274 -49.375 33.8125 C-50.18710937 34.23144531 -50.99921875 34.65039062 -51.8359375 35.08203125 C-54 36 -54 36 -57 36 C-57 36.66 -57 37.32 -57 38 C-60.2681432 39.17430074 -63.53992515 40.33811256 -66.8125 41.5 C-67.74126953 41.83386719 -68.67003906 42.16773438 -69.62695312 42.51171875 C-70.51962891 42.82753906 -71.41230469 43.14335938 -72.33203125 43.46875 C-73.15421143 43.76201172 -73.9763916 44.05527344 -74.82348633 44.35742188 C-77 45 -77 45 -80 45 C-80.33 45.66 -80.66 46.32 -81 47 C-82.99760305 47.34740923 -84.99787771 47.67966043 -87 48 C-87.99 48.66 -88.98 49.32 -90 50 C-90.99 50 -91.98 50 -93 50 C-92.67 49.01 -92.34 48.02 -92 47 C-90.35546875 46.19140625 -90.35546875 46.19140625 -88.1875 45.5625 C-87.37224854 45.31346924 -86.55699707 45.06443848 -85.71704102 44.80786133 C-84.82041748 44.54126709 -83.92379395 44.27467285 -83 44 C-53.30411629 34.59523545 -24.11874395 19.86811383 0 0 Z " fill="#0E71CE" transform="translate(691,655)"/>
<path d="M0 0 C0.99 0.66 1.98 1.32 3 2 C2.690625 2.680625 2.38125 3.36125 2.0625 4.0625 C0.88360482 6.97637663 0.88360482 6.97637663 0.625 10.125 C-0.40798419 16.529502 -2.96111875 22.3740232 -5.33984375 28.38671875 C-6.00693359 30.08248047 -6.00693359 30.08248047 -6.6875 31.8125 C-7.31205078 33.36904297 -7.31205078 33.36904297 -7.94921875 34.95703125 C-8.99239088 37.97796466 -9.56997764 40.83862683 -10 44 C-10.66 44 -11.32 44 -12 44 C-12.103125 44.9075 -12.20625 45.815 -12.3125 46.75 C-13.03862804 50.18260527 -13.92234378 51.28306495 -16 54 C-17.66158641 57.69157886 -19 60.92470932 -19 65 C-20.0828125 65.7734375 -20.0828125 65.7734375 -21.1875 66.5625 C-25.17156977 70.01536046 -26.8686216 74.24747964 -29 79 C-29.66 79 -30.32 79 -31 79 C-31.10183594 79.57234375 -31.20367188 80.1446875 -31.30859375 80.734375 C-32.12291016 83.40275646 -33.34673122 85.05965688 -35.0625 87.25 C-35.61035156 87.95640625 -36.15820312 88.6628125 -36.72265625 89.390625 C-37.35494141 90.18726563 -37.35494141 90.18726563 -38 91 C-38.33 90.34 -38.66 89.68 -39 89 C-38.04711914 87.08325195 -38.04711914 87.08325195 -36.53515625 84.73828125 C-35.71180786 83.44253174 -35.71180786 83.44253174 -34.87182617 82.12060547 C-34.27474854 81.19393066 -33.6776709 80.26725586 -33.0625 79.3125 C-17.52299556 54.65701463 -6.32587624 28.55681276 0 0 Z " fill="#0B71CD" transform="translate(785,509)"/>
<path d="M0 0 C1.17175781 -0.05607422 1.17175781 -0.05607422 2.3671875 -0.11328125 C8.01495377 -0.20031874 8.01495377 -0.20031874 10.68359375 2.31640625 C11.99395017 6.57370533 11.7047416 10.28953446 11.3125 14.6875 C11.2206543 15.94143555 11.2206543 15.94143555 11.12695312 17.22070312 C10.97447511 19.27329176 10.80174275 21.32435823 10.625 23.375 C13.2916419 24.70832095 14.79180303 24.04602033 17.625 23.375 C14.625 26.375 11.625 29.375 8.625 32.375 C8.625 22.475 8.625 12.575 8.625 2.375 C3.015 2.375 -2.595 2.375 -8.375 2.375 C-8.375 29.105 -8.375 55.835 -8.375 83.375 C-8.705 83.375 -9.035 83.375 -9.375 83.375 C-9.39812328 72.70080302 -9.41591501 62.02661194 -9.42681217 51.35239506 C-9.43204103 46.39646078 -9.43913874 41.44054358 -9.45043945 36.48461914 C-9.46126822 31.70601164 -9.46727681 26.92742062 -9.46987724 22.1488018 C-9.47173151 20.32146381 -9.47535216 18.49412676 -9.48073006 16.66679573 C-9.48794036 14.11646671 -9.48899095 11.56620663 -9.48852539 9.01586914 C-9.49212067 8.25270386 -9.49571594 7.48953857 -9.49942017 6.70324707 C-9.4842127 -0.9447708 -6.88602268 0.12376838 0 0 Z " fill="#0064D3" transform="translate(688.375,799.625)"/>
<path d="M0 0 C2.42034725 2.42034725 2.56915494 3.80100931 3.25390625 7.12109375 C3.46853516 8.13880859 3.68316406 9.15652344 3.90429688 10.20507812 C4.12150391 11.27177734 4.33871094 12.33847656 4.5625 13.4375 C4.99996402 15.54064335 5.43870912 17.64352075 5.87890625 19.74609375 C6.0704126 20.68122803 6.26191895 21.6163623 6.45922852 22.57983398 C6.98423178 25.12226421 6.98423178 25.12226421 8 28 C8.20222356 29.66272703 8.36411387 31.33054185 8.5 33 C8.5721875 33.86625 8.644375 34.7325 8.71875 35.625 C8.8115625 36.73875 8.904375 37.8525 9 39 C9.08161377 39.75490723 9.16322754 40.50981445 9.24731445 41.28759766 C10.07944155 49.31631811 10.19823015 57.30854667 10.1875 65.375 C10.18756042 66.07200012 10.18762085 66.76900024 10.18768311 67.48712158 C10.17661943 76.4767453 9.96025949 85.41814079 9.125 94.375 C9.04660889 95.23528809 8.96821777 96.09557617 8.88745117 96.98193359 C8.26514257 102.73485743 8.26514257 102.73485743 6 105 C6.10393066 103.41094849 6.10393066 103.41094849 6.20996094 101.78979492 C6.94683263 89.96107839 7.24086671 78.1632096 7.25 66.3125 C7.25100708 65.39412354 7.25201416 64.47574707 7.25305176 63.52954102 C7.23885531 44.31422685 5.32020629 26.20124985 0.76953125 7.51953125 C0 4 0 4 0 0 Z " fill="#0C6BC8" transform="translate(783,390)"/>
<path d="M0 0 C-0.33 0.66 -0.66 1.32 -1 2 C-3.32910156 2.48657227 -3.32910156 2.48657227 -6.390625 2.81640625 C-8.04384766 3.00299805 -8.04384766 3.00299805 -9.73046875 3.19335938 C-10.89191406 3.31517578 -12.05335938 3.43699219 -13.25 3.5625 C-15.52622433 3.81214215 -17.80227362 4.06338668 -20.078125 4.31640625 C-21.09293945 4.42412354 -22.10775391 4.53184082 -23.15332031 4.64282227 C-25.97909502 4.96026408 -25.97909502 4.96026408 -28.65136719 5.54272461 C-31.77860394 6.15159305 -34.81881665 6 -38 6 C-38.74024414 6.16677246 -39.48048828 6.33354492 -40.24316406 6.50537109 C-43.72580034 7.13022241 -47.09153427 7.03596075 -50.609375 6.9140625 C-51.33562073 6.89282318 -52.06186646 6.87158386 -52.81011963 6.84970093 C-54.34322472 6.80358895 -55.87624777 6.75467378 -57.40917969 6.703125 C-59.72835696 6.62572234 -62.0476621 6.55823433 -64.3671875 6.4921875 C-71.61808371 6.27251663 -78.8029511 5.96946549 -86 5 C-86 4.67 -86 4.34 -86 4 C-85.36202988 3.99413376 -84.72405975 3.98826752 -84.0667572 3.98222351 C-77.29920651 3.91723718 -70.53208643 3.83258028 -63.76489258 3.73754883 C-61.25453444 3.70472218 -58.74410996 3.6765659 -56.23364258 3.65356445 C-41.56850806 3.51568461 -27.30160543 2.85269285 -12.79516602 0.63208008 C-8.4793543 -0.00673482 -4.35880867 -0.118028 0 0 Z " fill="#116EC8" transform="translate(571,710)"/>
<path d="M0 0 C0 3.94825117 -1.74710761 5.9376852 -4 9 C-4.45117188 9.62648438 -4.90234375 10.25296875 -5.3671875 10.8984375 C-9.22043899 16.05527656 -13.46277575 20.82495173 -17.8125 25.5625 C-18.67572876 26.51092773 -18.67572876 26.51092773 -19.55639648 27.47851562 C-20.99526911 29.02613901 -22.49317109 30.51846053 -24 32 C-24.66 32 -25.32 32 -26 32 C-26.2475 32.94875 -26.495 33.8975 -26.75 34.875 C-28.24544477 38.61361191 -28.614844 38.31030544 -32 40 C-34.02595585 41.78072323 -35.99147329 43.57407617 -37.9375 45.4375 C-44.70588763 51.916422 -44.70588763 51.916422 -49 54 C-49.66 53.67 -50.32 53.34 -51 53 C-49.33424841 51.47816445 -47.66734329 49.9575915 -46 48.4375 C-45.49307617 47.97496826 -44.98615234 47.51243652 -44.46386719 47.03588867 C-41.76417206 44.57940547 -39.03753357 42.16833589 -36.25 39.8125 C-25.89821146 30.78403288 -16.41862076 20.84265943 -8 10 C-6.48108236 8.10263149 -4.96031922 6.20673855 -3.4375 4.3125 C-2.29103301 2.87550532 -1.1449484 1.43820494 0 0 Z " fill="#0B72D1" transform="translate(744,601)"/>
<path d="M0 0 C4.10233705 2.35863321 5.69054475 5.14760256 7.5625 9.4375 C7.5625 10.4275 7.5625 11.4175 7.5625 12.4375 C13.5025 12.4375 19.4425 12.4375 25.5625 12.4375 C25.8925 11.1175 26.2225 9.7975 26.5625 8.4375 C27.2225 10.0875 27.8825 11.7375 28.5625 13.4375 C26.21397472 14.61176264 24.82475935 14.55258173 22.2109375 14.53515625 C20.93476562 14.53032227 20.93476562 14.53032227 19.6328125 14.52539062 C18.74335937 14.51701172 17.85390625 14.50863281 16.9375 14.5 C16.0403125 14.49548828 15.143125 14.49097656 14.21875 14.48632812 C11.99993352 14.47452591 9.78124982 14.45806155 7.5625 14.4375 C7.07330078 13.51517578 7.07330078 13.51517578 6.57421875 12.57421875 C6.13722656 11.76597656 5.70023438 10.95773437 5.25 10.125 C4.82074219 9.32449219 4.39148438 8.52398438 3.94921875 7.69921875 C1.6956829 4.02373352 -0.15790098 2.18534543 -4.375 1.125 C-7.16407479 0.49322063 -8.17788899 0.34663615 -10.9375 1.3125 C-11.4325 1.68375 -11.9275 2.055 -12.4375 2.4375 C-12.4375 1.7775 -12.4375 1.1175 -12.4375 0.4375 C-14.4175 0.7675 -16.3975 1.0975 -18.4375 1.4375 C-18.4375 2.0975 -18.4375 2.7575 -18.4375 3.4375 C-19.0975 4.0975 -19.7575 4.7575 -20.4375 5.4375 C-21.33002713 6.63294543 -22.20393511 7.84243411 -23.0625 9.0625 C-23.50851562 9.69414063 -23.95453125 10.32578125 -24.4140625 10.9765625 C-24.75179687 11.45867188 -25.08953125 11.94078125 -25.4375 12.4375 C-26.0975 11.7775 -26.7575 11.1175 -27.4375 10.4375 C-21.76106014 -0.4949027 -12.00531313 -5.28053247 0 0 Z " fill="#0974D8" transform="translate(643.4375,818.5625)"/>
<path d="M0 0 C1.80634617 3.61269234 2.24945799 4.589974 2.22705078 8.30957031 C2.22689972 9.15013977 2.22674866 9.99070923 2.22659302 10.85675049 C2.21627045 11.75480408 2.20594788 12.65285767 2.1953125 13.578125 C2.1924826 14.5046991 2.18965271 15.43127319 2.18673706 16.38592529 C2.17555611 19.34074909 2.15045527 22.29526805 2.125 25.25 C2.11496751 27.25520395 2.10584213 29.26041266 2.09765625 31.265625 C2.07562358 36.17720051 2.04110795 41.08854859 2 46 C-3.94 46 -9.88 46 -16 46 C-16.33 45.34 -16.66 44.68 -17 44 C-17.99 44 -18.98 44 -20 44 C-18.70700306 41.11562221 -17.34058637 39.12780579 -15 37 C-15 39.64 -15 42.28 -15 45 C-10.05 45 -5.1 45 0 45 C0 30.15 0 15.3 0 0 Z " fill="#006EDD" transform="translate(801,838)"/>
<path d="M0 0 C-0.86625 0.4021875 -0.86625 0.4021875 -1.75 0.8125 C-4.05747896 1.95053246 -4.05747896 1.95053246 -6.125 3.625 C-8 5 -8 5 -10 5 C-10.33 18.86 -10.66 32.72 -11 47 C-16.94 47 -22.88 47 -29 47 C-29 46.67 -29 46.34 -29 46 C-23.72 46 -18.44 46 -13 46 C-13.03480469 43.39867187 -13.06960938 40.79734375 -13.10546875 38.1171875 C-13.12889491 35.58529761 -13.14709403 33.05342 -13.16479492 30.52148438 C-13.17983995 28.76784827 -13.20028104 27.01424953 -13.22631836 25.26074219 C-13.26289121 22.73362991 -13.2797692 20.20701704 -13.29296875 17.6796875 C-13.30845261 16.90132538 -13.32393646 16.12296326 -13.33988953 15.3210144 C-13.34163107 9.63111366 -11.93705465 5.90558197 -8.75 1.125 C-5.95080643 -0.67448158 -3.22865261 -0.18275392 0 0 Z " fill="#2D7FD8" transform="translate(485,837)"/>
<path d="M0 0 C3.14588944 -0.02683697 6.29155271 -0.04675902 9.4375 -0.0625 C10.33533203 -0.07087891 11.23316406 -0.07925781 12.15820312 -0.08789062 C13.01220703 -0.09111328 13.86621094 -0.09433594 14.74609375 -0.09765625 C15.93223267 -0.10551147 15.93223267 -0.10551147 17.14233398 -0.11352539 C19 0 19 0 20 1 C20.07226502 2.85287502 20.0838122 4.70833878 20.0625 6.5625 C20.05347656 7.57441406 20.04445313 8.58632813 20.03515625 9.62890625 C20.02355469 10.41136719 20.01195312 11.19382812 20 12 C20.66 12.33 21.32 12.66 22 13 C21.67 13.33 21.34 13.66 21 14 C25.455 14.99 25.455 14.99 30 16 C30 16.33 30 16.66 30 17 C26.04 17 22.08 17 18 17 C18 12.05 18 7.1 18 2 C12.39 2 6.78 2 1 2 C1 6.95 1 11.9 1 17 C-1.97 17 -4.94 17 -8 17 C-8 20.96 -8 24.92 -8 29 C-8.33 29 -8.66 29 -9 29 C-9 24.71 -9 20.42 -9 16 C-6.03 16 -3.06 16 0 16 C0 10.72 0 5.44 0 0 Z " fill="#0466CB" transform="translate(528,806)"/>
<path d="M0 0 C0.33 0.99 0.66 1.98 1 3 C1.556875 2.71125 2.11375 2.4225 2.6875 2.125 C7.82926153 -0.3763975 11.51058608 -1.23344699 17.3125 -1.125 C18.56675781 -1.10695313 19.82101562 -1.08890625 21.11328125 -1.0703125 C22.54220703 -1.03550781 22.54220703 -1.03550781 24 -1 C24 -0.67 24 -0.34 24 0 C22.83984375 0.03867187 22.83984375 0.03867187 21.65625 0.078125 C13.30652595 0.53281294 7.0791642 1.78937103 1 7.75 C0.01 8.86375 0.01 8.86375 -1 10 C-1 7.03 -1 4.06 -1 1 C-6.28 1 -11.56 1 -17 1 C-17 14.86 -17 28.72 -17 43 C-17.33 43 -17.66 43 -18 43 C-18.16939129 38.48366714 -18.32973376 33.96712452 -18.48217773 29.45019531 C-18.53511038 27.91788375 -18.59039246 26.38565127 -18.64819336 24.85351562 C-18.96236462 16.48290052 -19.11784783 8.33003646 -18 0 C-15.3753399 -0.19430855 -12.75053235 -0.38073238 -10.125 -0.5625 C-9.00544922 -0.64661133 -9.00544922 -0.64661133 -7.86328125 -0.73242188 C-2.2265625 -1.11328125 -2.2265625 -1.11328125 0 0 Z " fill="#0057C4" transform="translate(472,822)"/>
<path d="M0 0 C0.67417969 0.24878906 1.34835937 0.49757813 2.04296875 0.75390625 C1.71296875 1.41390625 1.38296875 2.07390625 1.04296875 2.75390625 C0.25921875 2.89828125 -0.52453125 3.04265625 -1.33203125 3.19140625 C-3.97193497 3.50004011 -3.97193497 3.50004011 -5.33203125 5.19140625 C-6.95703125 6.75390625 -6.95703125 6.75390625 -9.95703125 7.50390625 C-14.55933959 8.66415205 -18.11734478 11.28146218 -22.03515625 13.87890625 C-25.78843698 16.28742865 -29.68600637 18.34622477 -33.64453125 20.39453125 C-35.81477267 21.67028128 -37.2056097 22.98275037 -38.95703125 24.75390625 C-42.14453125 25.94140625 -42.14453125 25.94140625 -44.95703125 26.75390625 C-43.70141708 22.98706374 -42.59838271 22.67815728 -39.20703125 20.75 C-38.21356689 20.17838135 -37.22010254 19.6067627 -36.1965332 19.01782227 C-35.12749756 18.41510498 -34.05846191 17.8123877 -32.95703125 17.19140625 C-30.76256739 15.93959666 -28.56855975 14.68698695 -26.375 13.43359375 C-25.28751465 12.81452148 -24.2000293 12.19544922 -23.07958984 11.55761719 C-20.27670873 9.93856436 -17.51102734 8.27593003 -14.7578125 6.57421875 C-13.99146484 6.10443604 -13.22511719 5.63465332 -12.43554688 5.15063477 C-11.02511648 4.28183381 -9.62104937 3.40258871 -8.22460938 2.51147461 C-5.26715827 0.71008356 -3.50934414 -0.29205902 0 0 Z " fill="#0A6ECA" transform="translate(432.95703125,703.24609375)"/>
<path d="M0 0 C1.66420425 3.14571641 2.30978763 5.49764258 2.5625 9.0625 C2.77865749 11.996066 3.06198991 14.18596973 4 17 C3.34 17 2.68 17 2 17 C2 26.24 2 35.48 2 45 C0 43 0 43 -0.24050903 41.12704468 C-0.2338472 39.98787094 -0.2338472 39.98787094 -0.22705078 38.82568359 C-0.22689972 37.96494232 -0.22674866 37.10420105 -0.22659302 36.21737671 C-0.21627045 35.28712677 -0.20594788 34.35687683 -0.1953125 33.3984375 C-0.1924826 32.44683746 -0.18965271 31.49523743 -0.18673706 30.51480103 C-0.17551989 27.46807408 -0.15041263 24.42163846 -0.125 21.375 C-0.11497218 19.31250424 -0.10584599 17.25000388 -0.09765625 15.1875 C-0.07557554 10.12488733 -0.0410353 5.0624931 0 0 Z " fill="#0277EC" transform="translate(440,838)"/>
<path d="M0 0 C0 3 0 3 -1.6875 5.125 C-4.26739421 7.21680611 -5.79025009 7.43829377 -9 8 C-10.3471739 8.98127482 -11.67914258 9.98357812 -13 11 C-14.36025289 11.79656833 -15.73618497 12.5668447 -17.125 13.3125 C-21.48789232 15.68568189 -25.71542352 18.24260272 -29.93359375 20.86328125 C-32 22 -32 22 -34 22 C-32.67409571 18.02228713 -31.07351339 17.60733522 -27.4609375 15.56640625 C-26.32269531 14.91736328 -25.18445313 14.26832031 -24.01171875 13.59960938 C-22.79960491 12.92034849 -21.5873643 12.24131376 -20.375 11.5625 C-19.18572185 10.88820876 -17.99691405 10.21308723 -16.80859375 9.53710938 C-13.54317479 7.68401166 -10.2719188 5.84158634 -7 4 C-4.66401977 2.6712031 -2.33148454 1.33667222 0 0 Z " fill="#086FCC" transform="translate(386,729)"/>
<path d="M0 0 C-2.88146614 1.92097742 -4.72856048 2.59454487 -8.0234375 3.4453125 C-9.03519043 3.7139209 -10.04694336 3.9825293 -11.08935547 4.25927734 C-12.17361816 4.54496582 -13.25788086 4.8306543 -14.375 5.125 C-25.59230782 8.15877559 -36.36248541 11.90513409 -47.12841797 16.26318359 C-48.73255817 16.89471179 -50.36449266 17.45483089 -52 18 C-51.505 16.515 -51.505 16.515 -51 15 C-48.10441559 13.5522078 -46.25811062 13 -43 13 C-43 12.34 -43 11.68 -43 11 C-38.18744854 9.55175546 -33.37403128 8.10658812 -28.55859375 6.66796875 C-25.06656609 5.62381071 -21.57982763 4.56482225 -18.09765625 3.48828125 C-16.60678941 3.03379323 -15.11590492 2.57936308 -13.625 2.125 C-12.9431665 1.91012939 -12.26133301 1.69525879 -11.55883789 1.47387695 C-7.59367788 0.27646491 -4.13742452 -0.21775919 0 0 Z " fill="#0571F8" transform="translate(447,200)"/>
<path d="M0 0 C0.66 0 1.32 0 2 0 C1.7215625 0.55429687 1.443125 1.10859375 1.15625 1.6796875 C0.7746875 2.44539062 0.393125 3.21109375 0 4 C-0.60328125 5.21042969 -0.60328125 5.21042969 -1.21875 6.4453125 C-8.42782295 21.52282482 -7.23368864 34.92541927 -5 51 C-9.33881096 46.66118904 -9.2614573 39.6391532 -9.32958984 33.79418945 C-9.3239502 32.95460693 -9.31831055 32.11502441 -9.3125 31.25 C-9.30686035 30.37110107 -9.3012207 29.49220215 -9.29541016 28.58666992 C-9.09699084 17.91229987 -7.41461418 8.17879447 0 0 Z " fill="#0B6DD2" transform="translate(603,812)"/>
<path d="M0 0 C18.48 0.33 36.96 0.66 56 1 C56 1.66 56 2.32 56 3 C55.37432129 2.99476318 54.74864258 2.98952637 54.10400391 2.98413086 C51.27767943 2.96338382 48.45137095 2.95034714 45.625 2.9375 C44.64015625 2.92912109 43.6553125 2.92074219 42.640625 2.91210938 C41.69960938 2.90888672 40.75859375 2.90566406 39.7890625 2.90234375 C38.91975098 2.89710693 38.05043945 2.89187012 37.15478516 2.88647461 C34.94950006 2.85877649 34.94950006 2.85877649 33 4 C30.99898312 3.67282644 28.99916847 3.33828468 27 3 C24.60455286 2.95698411 22.20799289 2.95961234 19.8125 3 C6.15960612 3.0808661 6.15960612 3.0808661 1 2 C0.67 1.34 0.34 0.68 0 0 Z " fill="#0095F9" transform="translate(541,0)"/>
<path d="M0 0 C5.95506629 0.26498676 11.91005763 0.5315862 17.86499023 0.79956055 C19.88287493 0.89015291 21.90077809 0.98033515 23.91870117 1.07006836 C36.28554582 1.62032071 48.64481025 2.22929175 61 3 C61 3.33 61 3.66 61 4 C58.18780295 4.19384179 55.37545804 4.38036603 52.5625 4.5625 C51.76005859 4.61857422 50.95761719 4.67464844 50.13085938 4.73242188 C48.08937889 4.8616295 46.04453631 4.9351273 44 5 C43.505 4.505 43.505 4.505 43 4 C41.48242736 3.84190777 39.95798322 3.74883664 38.43359375 3.68359375 C37.00321777 3.6206311 37.00321777 3.6206311 35.54394531 3.55639648 C34.00625488 3.49754272 34.00625488 3.49754272 32.4375 3.4375 C31.40077148 3.3950415 30.36404297 3.35258301 29.29589844 3.30883789 C20.85786467 2.98474958 12.44312065 2.90053915 4 3 C3.01 3 2.02 3 1 3 C0.67 2.01 0.34 1.02 0 0 Z " fill="#01A3FD" transform="translate(620,2)"/>
<path d="M0 0 C1.31291016 -0.02513672 1.31291016 -0.02513672 2.65234375 -0.05078125 C5.46458512 0.37310602 6.31704479 1.12924085 8.0625 3.3125 C2.98114529 3.99001396 -1.800272 4.3125 -6.9375 4.3125 C-7.5975 5.6325 -8.2575 6.9525 -8.9375 8.3125 C-14.2175 8.3125 -19.4975 8.3125 -24.9375 8.3125 C-25.2675 7.6525 -25.5975 6.9925 -25.9375 6.3125 C-20.3275 6.3125 -14.7175 6.3125 -8.9375 6.3125 C-8.2775 4.9925 -7.6175 3.6725 -6.9375 2.3125 C-4.42737037 -0.19762963 -3.46944763 0.01528391 0 0 Z " fill="#0574DC" transform="translate(773.9375,834.6875)"/>
<path d="M0 0 C-1.50969151 3.70333167 -3.6663643 5.67763944 -6.6875 8.25 C-14.79017418 15.06748008 -14.79017418 15.06748008 -20 24 C-20.66 24 -21.32 24 -22 24 C-22 24.66 -22 25.32 -22 26 C-22.66 26 -23.32 26 -24 26 C-22.49158295 20.6899643 -18.98191234 17.42934718 -15.25 13.5625 C-14.6415625 12.91990234 -14.033125 12.27730469 -13.40625 11.61523438 C-11.61620496 9.73147971 -9.8100325 7.86453347 -8 6 C-7.43216797 5.40300293 -6.86433594 4.80600586 -6.27929688 4.19091797 C-2.2298393 0 -2.2298393 0 0 0 Z M-18 20 C-17.67 20.66 -17.34 21.32 -17 22 C-17.66 21.67 -18.32 21.34 -19 21 C-18.67 20.67 -18.34 20.34 -18 20 Z " fill="#0194F7" transform="translate(79,63)"/>
<path d="M0 0 C0.556875 0.309375 1.11375 0.61875 1.6875 0.9375 C3.95845718 2.13262138 3.95845718 2.13262138 6.5 2.25 C9 3 9 3 10.765625 5.7109375 C13.2320772 9.34162413 15.84529957 11.67893339 19.25 14.375 C19.80429687 14.82488281 20.35859375 15.27476562 20.9296875 15.73828125 C22.28050471 16.83290899 23.63942246 17.91752793 25 19 C24.34 19.66 23.68 20.32 23 21 C22.58492187 20.55011719 22.16984375 20.10023438 21.7421875 19.63671875 C16.76254792 14.43830839 11.38261201 10.02418339 5.66162109 5.68237305 C1.09767356 2.19534713 1.09767356 2.19534713 0 0 Z " fill="#0E7AF8" transform="translate(686,250)"/>
<path d="M0 0 C3.29158865 -0.05905417 6.58303756 -0.09394375 9.875 -0.125 C10.7928125 -0.14175781 11.710625 -0.15851562 12.65625 -0.17578125 C19.00812606 -0.22051277 24.82610036 0.51148437 31 2 C31 2.33 31 2.66 31 3 C29.52168779 3.19412181 28.04230684 3.38012131 26.5625 3.5625 C25.73878906 3.66691406 24.91507813 3.77132813 24.06640625 3.87890625 C23.04353516 3.93884766 23.04353516 3.93884766 22 4 C21.67 3.67 21.34 3.34 21 3 C19.44246949 2.77329092 17.87622641 2.60564908 16.30859375 2.46484375 C15.36435547 2.37783203 14.42011719 2.29082031 13.44726562 2.20117188 C12.45404297 2.11416016 11.46082031 2.02714844 10.4375 1.9375 C9.44041016 1.84662109 8.44332031 1.75574219 7.41601562 1.66210938 C4.94434298 1.43741186 2.47236744 1.21689649 0 1 C0 0.67 0 0.34 0 0 Z " fill="#0090F6" transform="translate(737,10)"/>
<path d="M0 0 C0.87914062 0.00451172 1.75828125 0.00902344 2.6640625 0.01367188 C4.81773803 0.02537663 6.97137817 0.04330931 9.125 0.0625 C9.125 0.3925 9.125 0.7225 9.125 1.0625 C8.09761719 1.08828125 7.07023438 1.1140625 6.01171875 1.140625 C-3.62888404 1.49280379 -12.19502761 2.46380217 -20.55078125 7.7578125 C-21.70126953 8.40363281 -21.70126953 8.40363281 -22.875 9.0625 C-23.535 8.7325 -24.195 8.4025 -24.875 8.0625 C-24.30910156 7.72476563 -23.74320313 7.38703125 -23.16015625 7.0390625 C-22.42667969 6.59304688 -21.69320312 6.14703125 -20.9375 5.6875 C-20.20660156 5.24664063 -19.47570312 4.80578125 -18.72265625 4.3515625 C-16.73727728 3.1851016 -16.73727728 3.1851016 -15.875 1.0625 C-10.65301723 -0.26385026 -5.34813503 -0.05235373 0 0 Z " fill="#0668D2" transform="translate(632.875,799.9375)"/>
<path d="M0 0 C0.74609375 1.68359375 0.74609375 1.68359375 1 4 C-3.2368658 10.58952347 -8.32954498 15.28076008 -16 17 C-16.99 16.67 -17.98 16.34 -19 16 C-17.93072266 15.48953125 -17.93072266 15.48953125 -16.83984375 14.96875 C-9.71549097 11.36342477 -3.66498253 7.32996505 0 0 Z " fill="#0973DB" transform="translate(665,867)"/>
<path d="M0 0 C0.33 0.66 0.66 1.32 1 2 C0.10796875 2.26554687 -0.7840625 2.53109375 -1.703125 2.8046875 C-2.87359375 3.15789063 -4.0440625 3.51109375 -5.25 3.875 C-6.99023438 4.39707031 -6.99023438 4.39707031 -8.765625 4.9296875 C-11.87329775 5.86528449 -11.87329775 5.86528449 -14.125 7.09375 C-16.37060894 8.17912765 -18.27311682 8.40645148 -20.75 8.625 C-21.54921875 8.69976562 -22.3484375 8.77453125 -23.171875 8.8515625 C-24.07679688 8.92503906 -24.07679688 8.92503906 -25 9 C-22.10104927 6.59692243 -19.63779935 5.38842055 -16.015625 4.39453125 C-15.08105469 4.13349609 -14.14648438 3.87246094 -13.18359375 3.60351562 C-12.21550781 3.34248047 -11.24742187 3.08144531 -10.25 2.8125 C-8.77466797 2.40354492 -8.77466797 2.40354492 -7.26953125 1.98632812 C-4.84838839 1.31640025 -2.42532121 0.65460804 0 0 Z " fill="#0194F6" transform="translate(153,23)"/>
<path d="M0 0 C0 0.33 0 0.66 0 1 C-0.74685059 1.05534912 -1.49370117 1.11069824 -2.26318359 1.16772461 C-5.63412992 1.41998122 -9.00455319 1.6786585 -12.375 1.9375 C-14.1384375 2.06801758 -14.1384375 2.06801758 -15.9375 2.20117188 C-17.61972656 2.33168945 -17.61972656 2.33168945 -19.3359375 2.46484375 C-20.37282715 2.543396 -21.4097168 2.62194824 -22.47802734 2.70288086 C-24.99156472 2.85432767 -24.99156472 2.85432767 -27 4 C-28.54613014 3.91348369 -30.08909387 3.75997364 -31.625 3.5625 C-32.85089844 3.40974609 -32.85089844 3.40974609 -34.1015625 3.25390625 C-34.72804687 3.17011719 -35.35453125 3.08632812 -36 3 C-36 2.67 -36 2.34 -36 2 C-23.97574024 0.77176809 -12.10035306 -0.3716832 0 0 Z " fill="#00A1FA" transform="translate(269,11)"/>
<path d="M0 0 C2.35119399 3.52679099 2.21443452 5.02879485 2.125 9.1875 C2.10695313 10.27417969 2.08890625 11.36085938 2.0703125 12.48046875 C2.03550781 13.72763672 2.03550781 13.72763672 2 15 C-0.83556587 16.41778293 -2.9908706 15.86257622 -6.125 15.5625 C-7.76855469 15.40974609 -7.76855469 15.40974609 -9.4453125 15.25390625 C-10.28835938 15.17011719 -11.13140625 15.08632813 -12 15 C-12 14.67 -12 14.34 -12 14 C-8.04 14 -4.08 14 0 14 C0 9.38 0 4.76 0 0 Z " fill="#157BD2" transform="translate(558,822)"/>
<path d="M0 0 C0.78246094 -0.01417969 1.56492187 -0.02835938 2.37109375 -0.04296875 C4.5625 0.1875 4.5625 0.1875 7.5625 2.1875 C4.33426021 2.69360903 1.10477635 3.19129907 -2.125 3.6875 C-3.03701172 3.83058594 -3.94902344 3.97367188 -4.88867188 4.12109375 C-6.21801758 4.32412109 -6.21801758 4.32412109 -7.57421875 4.53125 C-8.79177856 4.71977539 -8.79177856 4.71977539 -10.03393555 4.91210938 C-12.52283405 5.19727723 -14.93456689 5.23424739 -17.4375 5.1875 C-14.75375712 3.39833808 -13.39471111 2.79667406 -10.375 2.125 C-0.97992015 0.00804532 -0.97992015 0.00804532 0 0 Z " fill="#0B78F9" transform="translate(465.4375,194.8125)"/>
<path d="M0 0 C0.99 0.33 1.98 0.66 3 1 C1.87926138 1.83905565 0.75325453 2.67107831 -0.375 3.5 C-1.31472656 4.19609375 -1.31472656 4.19609375 -2.2734375 4.90625 C-4 6 -4 6 -6 6 C-6.3403125 6.8971875 -6.3403125 6.8971875 -6.6875 7.8125 C-8.3611297 10.60188284 -10.08817726 11.6168842 -13 13 C-13.66 12.67 -14.32 12.34 -15 12 C-14.2575 11.4225 -13.515 10.845 -12.75 10.25 C-10.05285469 8.13145405 -10.05285469 8.13145405 -8.0625 6 C-5.55794546 3.57134106 -3.02458433 1.73752717 0 0 Z " fill="#0192F8" transform="translate(94,50)"/>
<path d="M0 0 C7.06970306 0.4932351 13.60468225 3.02478696 20 6 C20.33 6.66 20.66 7.32 21 8 C20.07380859 7.69255859 20.07380859 7.69255859 19.12890625 7.37890625 C13.37289724 5.54784707 8.02021684 4.48550136 2 4 C2 3.01 2 2.02 2 1 C1.34 0.67 0.68 0.34 0 0 Z " fill="#0196F7" transform="translate(880,27)"/>
<path d="M0 0 C0.33 0.66 0.66 1.32 1 2 C0.01196289 3.97119141 0.01196289 3.97119141 -1.52734375 6.3515625 C-2.07197266 7.20234375 -2.61660156 8.053125 -3.17773438 8.9296875 C-4.04881836 10.26386719 -4.04881836 10.26386719 -4.9375 11.625 C-5.8027832 12.97078125 -5.8027832 12.97078125 -6.68554688 14.34375 C-8.11660783 16.56721661 -9.5549815 18.78558887 -11 21 C-11.66 20.67 -12.32 20.34 -13 20 C-12.505 18.515 -12.505 18.515 -12 17 C-11.34 17 -10.68 17 -10 17 C-9.75507813 16.30519531 -9.51015625 15.61039062 -9.2578125 14.89453125 C-7.79749975 11.53399786 -5.93718222 8.71425133 -3.875 5.6875 C-3.15054687 4.61886719 -2.42609375 3.55023438 -1.6796875 2.44921875 C-0.84824219 1.23685547 -0.84824219 1.23685547 0 0 Z " fill="#0B75F5" transform="translate(278,310)"/>
<path d="M0 0 C1.24523437 0.02707031 2.49046875 0.05414062 3.7734375 0.08203125 C4.71445312 0.11683594 5.65546875 0.15164063 6.625 0.1875 C6.625 0.5175 6.625 0.8475 6.625 1.1875 C5.46484375 1.22617187 5.46484375 1.22617187 4.28125 1.265625 C-4.14481314 1.72447002 -9.44648365 3.5684891 -16.375 8.1875 C-16.705 6.8675 -17.035 5.5475 -17.375 4.1875 C-16.570625 4.0328125 -16.570625 4.0328125 -15.75 3.875 C-13.23785531 3.24815805 -13.23785531 3.24815805 -10.6875 1.65625 C-6.84538034 -0.04733136 -4.17880403 -0.11826804 0 0 Z " fill="#0764C7" transform="translate(489.375,820.8125)"/>
<path d="M0 0 C7.94311927 0.33944954 7.94311927 0.33944954 11.5 2.5625 C13.64039722 6.04064549 13.72924021 8.93860316 14 13 C13.01 13.495 13.01 13.495 12 14 C11.87625 12.906875 11.7525 11.81375 11.625 10.6875 C11.24535199 6.92618198 11.24535199 6.92618198 9 4 C6.82102508 2.99194445 6.82102508 2.99194445 4.375 2.3125 C3.55773437 2.06113281 2.74046875 1.80976562 1.8984375 1.55078125 C1.27195312 1.36902344 0.64546875 1.18726563 0 1 C0 0.67 0 0.34 0 0 Z " fill="#1677D0" transform="translate(480,836)"/>
<path d="M0 0 C12.87 0.495 12.87 0.495 26 1 C22.87054953 3.08630031 22.20434365 3.24413259 18.65625 3.1953125 C17.40521484 3.18564453 17.40521484 3.18564453 16.12890625 3.17578125 C15.26136719 3.15902344 14.39382813 3.14226563 13.5 3.125 C12.63246094 3.11597656 11.76492188 3.10695313 10.87109375 3.09765625 C9.25971013 3.08022242 7.64836202 3.05868345 6.03710938 3.03173828 C4.35824334 3.00558145 2.67906979 3 1 3 C0.67 2.01 0.34 1.02 0 0 Z " fill="#0091F8" transform="translate(620,2)"/>
<path d="M0 0 C0.99 0.495 0.99 0.495 2 1 C2.33333333 3 2.66666667 5 3 7 C3.66 7.33 4.32 7.66 5 8 C7.28773166 15.34482269 7.28773166 15.34482269 6 20 C4.99422987 17.23113877 3.99519853 14.46015896 3 11.6875 C2.71382812 10.90181641 2.42765625 10.11613281 2.1328125 9.30664062 C1.86210938 8.54931641 1.59140625 7.79199219 1.3125 7.01171875 C1.06113281 6.31522217 0.80976562 5.61872559 0.55078125 4.90112305 C0 3 0 3 0 0 Z " fill="#0768C3" transform="translate(776,369)"/>
<path d="M0 0 C1.74844257 3.06332824 2.33956573 5.55800143 2.625 9.0625 C2.69976562 9.91972656 2.77453125 10.77695312 2.8515625 11.66015625 C2.96429773 13.43721943 3 15.2193645 3 17 C1.51171875 15.94921875 1.51171875 15.94921875 0 14 C-0.29296875 10.64453125 -0.29296875 10.64453125 -0.1875 6.8125 C-0.16042969 5.54019531 -0.13335937 4.26789062 -0.10546875 2.95703125 C-0.07066406 1.98121094 -0.03585937 1.00539063 0 0 Z " fill="#006BCC" transform="translate(440,838)"/>
<path d="M0 0 C-3.16275494 2.10850329 -6.13471538 3.28830876 -9.6875 4.625 C-10.86699219 5.07101563 -12.04648437 5.51703125 -13.26171875 5.9765625 C-14.16535156 6.31429687 -15.06898438 6.65203125 -16 7 C-15.67 6.01 -15.34 5.02 -15 4 C-12.10441559 2.5522078 -10.25811062 2 -7 2 C-7 1.34 -7 0.68 -7 0 C-4.3333581 -1.33332095 -2.83319697 -0.67102033 0 0 Z " fill="#0D7BF8" transform="translate(411,211)"/>
<path d="M0 0 C0.33 0.66 0.66 1.32 1 2 C2.98 2 4.96 2 7 2 C7 2.33 7 2.66 7 3 C5.10507254 3.19644384 3.20899097 3.38177288 1.3125 3.5625 C-0.27111328 3.71912109 -0.27111328 3.71912109 -1.88671875 3.87890625 C-4.81426086 3.99277552 -7.17131144 3.70848415 -10 3 C-6.73454239 1.11608215 -3.71888239 0.50712033 0 0 Z " fill="#0073CB" transform="translate(175,1000)"/>
<path d="M0 0 C0.33 0 0.66 0 1 0 C1 2.97 1 5.94 1 9 C1.66 9.33 2.32 9.66 3 10 C2.67 10.33 2.34 10.66 2 11 C6.455 11.99 6.455 11.99 11 13 C11 13.33 11 13.66 11 14 C7.37 14 3.74 14 0 14 C0 9.38 0 4.76 0 0 Z " fill="#0162C9" transform="translate(547,809)"/>
<path d="M0 0 C-0.5775 0.268125 -1.155 0.53625 -1.75 0.8125 C-4.05747896 1.95053246 -4.05747896 1.95053246 -6.125 3.625 C-8 5 -8 5 -10 5 C-10 6.32 -10 7.64 -10 9 C-10.66 9 -11.32 9 -12 9 C-11.66466723 5.98200506 -11.13434402 4.19118187 -9.375 1.6875 C-6.16715428 -0.5917588 -3.84279789 -0.29559984 0 0 Z " fill="#0469CF" transform="translate(485,837)"/>
<path d="M0 0 C5.852795 0.51482919 11.3297637 1.45357192 17 3 C16.67 3.66 16.34 4.32 16 5 C10.47293087 4.27275406 5.30039859 2.66554027 0 1 C0 0.67 0 0.34 0 0 Z " fill="#0666C7" transform="translate(440,706)"/>
<path d="M0 0 C0.66 0 1.32 0 2 0 C2 1.32 2 2.64 2 4 C0.36739286 5.37482707 -1.30225062 6.70647667 -3 8 C-4.31165257 10.11660427 -4.31165257 10.11660427 -5 12 C-5.66 11.67 -6.32 11.34 -7 11 C-6.02262231 9.35310365 -5.0430468 7.70751146 -4.0625 6.0625 C-3.51722656 5.14597656 -2.97195312 4.22945313 -2.41015625 3.28515625 C-1 1 -1 1 0 0 Z " fill="#0190F8" transform="translate(46,100)"/>
<path d="M0 0 C-1.08203125 1.48828125 -1.08203125 1.48828125 -3 3 C-6.13671875 3.29296875 -6.13671875 3.29296875 -9.6875 3.1875 C-11.45673828 3.14689453 -11.45673828 3.14689453 -13.26171875 3.10546875 C-14.16535156 3.07066406 -15.06898438 3.03585938 -16 3 C-11.82972023 -1.17027977 -5.53869904 -0.10860194 0 0 Z " fill="#0197F9" transform="translate(171,21)"/>
<path d="M0 0 C0.66 0.33 1.32 0.66 2 1 C1.01 4.96 0.02 8.92 -1 13 C-1.66 12.34 -2.32 11.68 -3 11 C-2.79296875 8.65234375 -2.79296875 8.65234375 -2.1875 5.9375 C-1.99542969 5.03902344 -1.80335938 4.14054687 -1.60546875 3.21484375 C-1 1 -1 1 0 0 Z " fill="#0E72CC" transform="translate(789,496)"/>
<path d="M0 0 C0.99 0.33 1.98 0.66 3 1 C3.05422947 2.4370809 3.09289723 3.87475462 3.125 5.3125 C3.14820313 6.11300781 3.17140625 6.91351563 3.1953125 7.73828125 C3 10 3 10 1 13 C0.67 8.71 0.34 4.42 0 0 Z " fill="#1275C9" transform="translate(789,422)"/>
<path d="M0 0 C0.99 0.33 1.98 0.66 3 1 C0.69 4.96 -1.62 8.92 -4 13 C-4.33 12.34 -4.66 11.68 -5 11 C-4.00390625 8.3984375 -4.00390625 8.3984375 -2.5625 5.375 C-2.08941406 4.37210937 -1.61632813 3.36921875 -1.12890625 2.3359375 C-0.75636719 1.56507812 -0.38382813 0.79421875 0 0 Z " fill="#0196FB" transform="translate(35,119)"/>
<path d="M0 0 C-1.423125 0.6496875 -1.423125 0.6496875 -2.875 1.3125 C-6.20041937 2.79302201 -6.20041937 2.79302201 -8 6 C-9.32 4.35 -10.64 2.7 -12 1 C-10.56496445 0.63597631 -9.12683494 0.28413409 -7.6875 -0.0625 C-6.88699219 -0.25972656 -6.08648437 -0.45695313 -5.26171875 -0.66015625 C-3 -1 -3 -1 0 0 Z " fill="#076ECA" transform="translate(351,752)"/>
<path d="M0 0 C-4.36200187 2.44697666 -8.02693484 3.50269348 -13 4 C-13.33 3.34 -13.66 2.68 -14 2 C-12.42085985 1.46658816 -10.83645613 0.94874237 -9.25 0.4375 C-8.36828125 0.14746094 -7.4865625 -0.14257812 -6.578125 -0.44140625 C-3.92165684 -1.01697435 -2.52968894 -0.89248371 0 0 Z " fill="#0D6DCA" transform="translate(596,705)"/>
<path d="M0 0 C4.81033104 2.54664585 8.32442148 4.99027798 12 9 C9 8 6 7 3 6 C3 5.34 3 4.68 3 4 C2.01 3.34 1.02 2.68 0 2 C0 1.34 0 0.68 0 0 Z " fill="#0190F7" transform="translate(926,48)"/>
<path d="M0 0 C0 4.6091008 -2.67465029 7.57998246 -5.75 10.875 C-6.1625 11.24625 -6.575 11.6175 -7 12 C-7.66 11.67 -8.32 11.34 -9 11 C-6.03 7.37 -3.06 3.74 0 0 Z " fill="#0A6FCE" transform="translate(744,601)"/>
<path d="M0 0 C-1.62170379 1.00533667 -3.24747237 2.00411907 -4.875 3 C-6.23238281 3.8353125 -6.23238281 3.8353125 -7.6171875 4.6875 C-10 6 -10 6 -12 6 C-11 3 -11 3 -9.2578125 1.796875 C-8.55398438 1.45140625 -7.85015625 1.1059375 -7.125 0.75 C-6.42632813 0.39421875 -5.72765625 0.0384375 -5.0078125 -0.328125 C-3 -1 -3 -1 0 0 Z " fill="#036ACC" transform="translate(654,682)"/>
<path d="M0 0 C0.99 0.33 1.98 0.66 3 1 C0.36 2.98 -2.28 4.96 -5 7 C-5.66 6.67 -6.32 6.34 -7 6 C-5.90716423 4.96704564 -4.80029421 3.94892165 -3.6875 2.9375 C-3.07261719 2.36902344 -2.45773437 1.80054688 -1.82421875 1.21484375 C-0.92123047 0.61349609 -0.92123047 0.61349609 0 0 Z " fill="#046DCC" transform="translate(700,648)"/>
<path d="M0 0 C0.33 0.99 0.66 1.98 1 3 C-0.43359375 5.26171875 -0.43359375 5.26171875 -2.4375 7.6875 C-3.09621094 8.49574219 -3.75492188 9.30398438 -4.43359375 10.13671875 C-4.95050781 10.75160156 -5.46742188 11.36648438 -6 12 C-6.33 11.34 -6.66 10.68 -7 10 C-3.535 5.05 -3.535 5.05 0 0 Z " fill="#0469CC" transform="translate(753,588)"/>
<path d="M0 0 C0.66 0 1.32 0 2 0 C2 0.99 2 1.98 2 3 C1.34 3 0.68 3 0 3 C-0.12375 3.598125 -0.2475 4.19625 -0.375 4.8125 C-1 7 -1 7 -3 10 C-3.66 10 -4.32 10 -5 10 C-4.34 8.02 -3.68 6.04 -3 4 C-2.34 4 -1.68 4 -1 4 C-0.67 2.68 -0.34 1.36 0 0 Z " fill="#0191F6" transform="translate(53,89)"/>
<path d="M0 0 C2.475 0.495 2.475 0.495 5 1 C5 1.66 5 2.32 5 3 C6.32 3.33 7.64 3.66 9 4 C8.67 4.99 8.34 5.98 8 7 C6.66382648 6.02471263 5.3311249 5.04466681 4 4.0625 C3.2575 3.51722656 2.515 2.97195313 1.75 2.41015625 C1.1725 1.94480469 0.595 1.47945312 0 1 C0 0.67 0 0.34 0 0 Z " fill="#0080D9" transform="translate(89,969)"/>
<path d="M0 0 C0.33 0 0.66 0 1 0 C1 2.31 1 4.62 1 7 C-0.32 7.33 -1.64 7.66 -3 8 C-3 3.75589918 -2.68429577 3.00641127 0 0 Z " fill="#0C76DF" transform="translate(785,875)"/>
<path d="M0 0 C0.99 0.33 1.98 0.66 3 1 C5.63804589 0.60602665 5.63804589 0.60602665 8 0 C5.6875 2.5 5.6875 2.5 3 5 C2.01 5 1.02 5 0 5 C0 3.35 0 1.7 0 0 Z " fill="#0674DC" transform="translate(698,823)"/>
<path d="M0 0 C0.66 0.33 1.32 0.66 2 1 C0.73427767 2.15147661 -0.53777906 3.29599314 -1.8125 4.4375 C-2.52019531 5.07558594 -3.22789062 5.71367188 -3.95703125 6.37109375 C-6 8 -6 8 -9 9 C-7.83709195 5.51127585 -6.86032391 4.90023136 -3.9375 2.8125 C-3.20402344 2.28269531 -2.47054687 1.75289062 -1.71484375 1.20703125 C-1.14894531 0.80871094 -0.58304688 0.41039062 0 0 Z " fill="#096DCE" transform="translate(691,655)"/>
<path d="M0 0 C0.33 0.99 0.66 1.98 1 3 C-3.455 6.96 -3.455 6.96 -8 11 C-8 8 -8 8 -6.25 5.95703125 C-5.5075 5.24933594 -4.765 4.54164063 -4 3.8125 C-2.88625 2.73935547 -2.88625 2.73935547 -1.75 1.64453125 C-1.1725 1.10183594 -0.595 0.55914062 0 0 Z " fill="#0264C7" transform="translate(405,456)"/>
<path d="M0 0 C3.3 0.33 6.6 0.66 10 1 C9.67 1.66 9.34 2.32 9 3 C6.03 3 3.06 3 0 3 C0 2.01 0 1.02 0 0 Z " fill="#1D7AD2" transform="translate(519,835)"/>
<path d="M0 0 C3.03368793 3.03368793 5 5.63755776 5 10 C1.91910327 7.22719294 0.31224548 4.93673644 -1 1 C-0.67 0.67 -0.34 0.34 0 0 Z " fill="#0E73D7" transform="translate(617,854)"/>
<path d="M0 0 C-2.64 1.65 -5.28 3.3 -8 5 C-8 4.01 -8 3.02 -8 2 C-3.71900826 -1.23966942 -3.71900826 -1.23966942 0 0 Z " fill="#086BCD" transform="translate(673,671)"/>
<path d="M0 0 C1.125 1.6875 1.125 1.6875 2 4 C1.125 6.75 1.125 6.75 0 9 C-0.66 8.67 -1.32 8.34 -2 8 C-1.34 5.36 -0.68 2.72 0 0 Z " fill="#147FDD" transform="translate(668,859)"/>
</svg>
